<?xml version="1.0" standalone="no"?><!DOCTYPE svg PUBLIC "-//W3C//DTD SVG 1.1//EN" "http://www.w3.org/Graphics/SVG/1.1/DTD/svg11.dtd"><svg t="1533294927715" class="icon" style="" viewBox="0 0 1024 1024" version="1.1" xmlns="http://www.w3.org/2000/svg" p-id="33136" xmlns:xlink="http://www.w3.org/1999/xlink" width="128" height="128"><defs><style type="text/css"></style></defs><path d="M930.909091 439.156364a77.032727 77.032727 0 0 0 26.298182-58.414546A75.403636 75.403636 0 0 0 884.363636 304.407273h-26.065454l-16.989091-57.250909A139.636364 139.636364 0 0 0 768 155.461818a134.981818 134.981818 0 0 0-51.898182-13.498182H308.130909a134.981818 134.981818 0 0 0-52.130909 13.498182 139.636364 139.636364 0 0 0-73.774545 91.694546l-16.989091 57.250909h-20.945455A75.636364 75.636364 0 0 0 69.818182 380.741818a76.8 76.8 0 0 0 23.272727 56.785455 134.981818 134.981818 0 0 0-46.545454 103.098182v144.290909a44.916364 44.916364 0 0 0 1.396363 9.774545A50.967273 50.967273 0 0 0 69.818182 721.454545v90.996364A69.818182 69.818182 0 0 0 139.636364 884.363636h48.64a69.818182 69.818182 0 0 0 69.818181-71.447272v-41.425455l41.658182 3.490909c74.007273 5.585455 148.48 6.050909 212.48 6.050909s139.636364 0 212.712728-6.050909l41.658181-3.490909v41.425455a69.818182 69.818182 0 0 0 69.818182 71.447272H884.363636a69.818182 69.818182 0 0 0 69.818182-71.447272V721.454545a52.363636 52.363636 0 0 0 21.178182-27.22909 42.821818 42.821818 0 0 0 1.396364-9.541819v-144.290909A135.214545 135.214545 0 0 0 930.909091 439.156364z m0-62.370909A43.287273 43.287273 0 0 1 897.396364 418.909091l-25.367273-85.643636h16.058182A43.054545 43.054545 0 0 1 930.909091 376.785455z m-714.705455-116.363637a97.047273 97.047273 0 0 1 51.2-64.698182A95.418182 95.418182 0 0 1 300.218182 186.181818h423.098182a95.418182 95.418182 0 0 1 33.28 9.309091 96.349091 96.349091 0 0 1 51.2 64.698182l46.545454 153.367273H170.123636z m-67.723636 72.145455h10.938182l-27.229091 91.694545a46.545455 46.545455 0 0 1 16.290909-91.694545z m44.450909 512h-58.181818a27.694545 27.694545 0 0 1-27.229091-28.392728v-81.454545l17.687273 5.585455a741.236364 741.236364 0 0 0 76.334545 16.98909l18.618182 5.12v53.76a27.927273 27.927273 0 0 1-27.229091 29.323637z m695.156364-1.629091h-56.087273a26.996364 26.996364 0 0 1-26.530909-27.694546v-50.967272l18.618182-5.352728a617.192727 617.192727 0 0 0 73.076363-16.290909q9.076364-2.56 17.454546-5.585454v79.36a26.763636 26.763636 0 0 1-26.530909 27.461818z m36.305454-151.738182l-98.210909 28.392727c-35.141818 5.818182-69.818182 8.843636-100.305454 11.170909-74.24 5.352727-149.410909 5.818182-214.109091 5.818182s-139.636364 0-214.109091-5.818182c-29.789091-2.327273-64.698182-5.352727-99.374546-11.170909l-99.607272-27.694545a69.818182 69.818182 0 0 1-14.894546-9.309091v-143.127273a84.945455 84.945455 0 0 1 67.956364-85.410909 23.272727 23.272727 0 0 0 8.145454 0h699.345455a83.549091 83.549091 0 0 1 80.523636 86.341818v143.127273a69.818182 69.818182 0 0 1-15.36 8.610909z" fill="#8B8989" p-id="33137"></path><path d="M252.509091 506.88a81.92 81.92 0 1 0 79.825454 81.92 80.989091 80.989091 0 0 0-79.825454-81.92z m0 126.370909a44.683636 44.683636 0 1 1 43.52-44.450909 43.985455 43.985455 0 0 1-43.52 44.450909zM753.338182 506.88a81.92 81.92 0 1 0 79.825454 81.92 80.989091 80.989091 0 0 0-79.825454-81.92z m0 126.370909a44.683636 44.683636 0 1 1 43.52-44.450909 43.985455 43.985455 0 0 1-43.52 44.450909z" fill="#8B8989" p-id="33138"></path></svg>