<?xml version="1.0" standalone="no"?><!DOCTYPE svg PUBLIC "-//W3C//DTD SVG 1.1//EN" "http://www.w3.org/Graphics/SVG/1.1/DTD/svg11.dtd"><svg t="1533352036337" class="icon" style="" viewBox="0 0 1024 1024" version="1.1" xmlns="http://www.w3.org/2000/svg" p-id="5127" xmlns:xlink="http://www.w3.org/1999/xlink" width="128" height="128"><defs><style type="text/css"></style></defs><path d="M928 960 129.344 960c-17.6 0-31.872-14.208-32-31.808l-5.568-832C91.712 87.68 95.04 79.488 101.12 73.408 107.072 67.392 115.264 64 123.776 64L704 64l0 64L156.032 128l5.184 768L896 896 896 448l64 0 0 480C960 945.664 945.664 960 928 960z" p-id="5128" fill="#e6e6e6"></path><path d="M365.248 694.08c-8.192 0-16.384-3.136-22.656-9.344-12.48-12.48-12.48-32.768 0-45.248l555.84-555.84c12.48-12.48 32.768-12.48 45.248 0s12.48 32.768 0 45.248l-555.84 555.84C381.632 690.944 373.44 694.08 365.248 694.08z" p-id="5129" fill="#e6e6e6"></path></svg>