<?xml version="1.0" standalone="no"?><!DOCTYPE svg PUBLIC "-//W3C//DTD SVG 1.1//EN" "http://www.w3.org/Graphics/SVG/1.1/DTD/svg11.dtd"><svg t="1533280800868" class="icon" style="" viewBox="0 0 1024 1024" version="1.1" xmlns="http://www.w3.org/2000/svg" p-id="13992" xmlns:xlink="http://www.w3.org/1999/xlink" width="128" height="128"><defs><style type="text/css"></style></defs><path d="M512.355599 745.521544c-199.399399 0-368.32781-49.27731-426.778036-117.375268-14.196327 16.557094-21.961174 34.201963-21.961174 52.519144 0 93.77578 200.89138 169.771615 448.739211 169.771615S961.081507 774.441201 961.081507 680.665421c0-18.317181-7.740288-35.963073-21.948895-52.519144C880.683409 696.244234 711.754998 745.521544 512.355599 745.521544z" p-id="13993" fill="#cf1b04"></path><path d="M898.914632 489.50773c-32.367175 20.738323-76.069513 38.663578-127.842667 52.481282-73.122391 19.576871-162.325016 31.083949-258.71739 31.083949-96.392374 0-185.581696-11.507078-258.69283-31.083949-51.821249-13.817704-95.475492-31.743982-127.867226-52.481282-16.483416-10.564613-30.043247-21.86396-40.21798-33.700543-14.196327 16.531512-21.961174 34.128285-21.961174 52.457746 0 11.579733 3.081175 22.792099 8.864902 33.724079 10.051937 18.819624 28.319999 36.500309 53.314253 52.445466 78.087473 50.061163 221.960231 83.60207 386.560056 83.60207 164.636664 0 308.509423-33.540907 386.560056-83.60207 24.981974-15.945157 43.25106-33.625842 53.314253-52.445466 5.783727-10.93198 8.852622-22.144346 8.852622-33.724079 0-18.329461-7.740288-35.925211-21.948895-52.457746C928.946622 467.642746 915.399071 478.942093 898.914632 489.50773z" p-id="13994" fill="#cf1b04"></path><path d="M123.814422 423.378613c18.818601 12.264325 41.550325 23.62507 67.583235 33.700543 81.523735 31.56081 195.156772 51.186799 320.956919 51.186799 125.824707 0 239.434208-19.62599 320.956919-51.186799 26.058492-10.075473 48.764634-21.435195 67.584258-33.700543 24.51637-16.006556 42.308595-33.711799 51.907207-52.506864 5.355985-10.467399 8.278547-21.276582 8.278547-32.390711 0-93.738941-200.880123-169.735799-448.726931-169.735799S63.616388 244.741074 63.616388 338.481038c0 11.114129 2.934842 21.924335 8.253988 32.390711C81.468988 389.665791 99.297029 407.372058 123.814422 423.378613z" p-id="13995" fill="#cf1b04"></path></svg>