<?xml version="1.0" standalone="no"?><!DOCTYPE svg PUBLIC "-//W3C//DTD SVG 1.1//EN" "http://www.w3.org/Graphics/SVG/1.1/DTD/svg11.dtd"><svg t="1533280631642" class="icon" style="" viewBox="0 0 1614 1024" version="1.1" xmlns="http://www.w3.org/2000/svg" p-id="9358" xmlns:xlink="http://www.w3.org/1999/xlink" width="201.75" height="128"><defs><style type="text/css"></style></defs><path d="M351.310769 1021.400615l449.693539-864.098461c23.591385-46.473846 43.598769-76.524308 60.100923-90.308923 16.502154-13.705846 37.179077-20.598154 62.030769-20.598154h41.668923l7.876923-45.686154h-309.917538l-7.876923 45.686154h59.943384c31.153231 0 51.081846 2.520615 59.746462 7.483077 8.625231 5.041231 11.815385 14.257231 9.452307 27.766154-1.102769 6.459077-3.938462 14.966154-8.388923 25.442461-4.489846 10.515692-10.988308 23.512615-19.495384 38.990769L488.763077 663.945846 346.466462 46.395077h112.56123l7.876923-45.686154H8.625231l-7.876923 45.686154h82.589538l223.350154 975.005538H351.310769zM946.963692 1023.054769l4.883693-28.278154h-68.568616l88.733539-516.174769h68.568615l4.529231-26.151384h-280.969846l-4.529231 26.151384h68.608l-88.772923 516.174769h-68.568616l-4.883692 28.278154h280.969846zM1018.564923 1023.054769h287.232l4.844308-28.278154h-79.005539l41.511385-241.348923h75.224615c78.926769 0 140.288-12.957538 184.201846-38.83323 43.874462-25.836308 70.262154-64.630154 79.163077-116.381539 8.507077-49.427692-4.292923-86.094769-38.360615-109.961846-34.107077-23.867077-90.308923-35.800615-168.605538-35.800615h-288.098462l-4.489846 26.151384h67.741538l-88.772923 516.174769h-67.741538l-4.844308 28.278154z m376.280615-544.452923c33.988923 0 54.902154 6.695385 62.779077 20.125539 7.876923 13.469538 7.168 47.182769-2.126769 101.218461-10.24 59.707077-21.661538 96.452923-34.225231 110.158769-12.524308 13.705846-34.540308 20.598154-66.048 20.598154h-78.178461l43.323077-252.100923h74.436923z" p-id="9359" fill="#dbdbdb"></path></svg>