<?xml version="1.0" standalone="no"?><!DOCTYPE svg PUBLIC "-//W3C//DTD SVG 1.1//EN" "http://www.w3.org/Graphics/SVG/1.1/DTD/svg11.dtd"><svg t="1533524408465" class="icon" style="" viewBox="0 0 1024 1024" version="1.1" xmlns="http://www.w3.org/2000/svg" p-id="15319" xmlns:xlink="http://www.w3.org/1999/xlink" width="48" height="48"><defs><style type="text/css"></style></defs><path d="M815.3232624197531 849.0291553975309l-2.2737367544323206e-13-674.0583107950617 51.987362449382715 28.312846538271586-521.8516789728394 337.0304499358026-1.7763568394002505e-14-56.623104 521.8516789728396 337.02786085925914-51.98736244938271 28.312846538271607zM882.7311647604938 849.0291553975306c7.105427357601002e-15 26.697262775308637-29.56207597037035 42.79484618271604-51.98736244938271 28.312846538271607l-521.8516789728396-337.0304499358023c-20.55726775308642-13.276784513580234-20.555973214814824-43.34761402469133-1.7763568394002505e-14-56.623104l521.8516789728394-337.0304499358026c22.42658101728394-14.480705106172849 51.987362449382715 1.6129946864197358 51.987362449382715 28.312846538271586l2.2737367544323206e-13 674.0583107950617zM212.11762030617274 208.3971173135804c-5.329070518200751e-15-18.46011575308642-14.959684266666676-33.427567249382705-33.70200936296297-33.4275672493827-18.612871269135802 5.329070518200751e-15-33.702009362962954 15.345456671604943-33.70200936296295 33.42756724938272l1.7053025658242404e-13 607.2044708345679c5.329070518200751e-15 18.46011575308642 14.959684266666676 33.427567249382705 33.70200936296297 33.4275672493827 18.612871269135802-5.329070518200751e-15 33.702009362962954-15.345456671604943 33.70200936296295-33.42756724938272l-1.7053025658242404e-13-607.2044708345679z" p-id="15320" fill="#dbdbdb"></path></svg>