<?xml version="1.0" standalone="no"?><!DOCTYPE svg PUBLIC "-//W3C//DTD SVG 1.1//EN" "http://www.w3.org/Graphics/SVG/1.1/DTD/svg11.dtd"><svg t="1533524609214" class="icon" style="" viewBox="0 0 1024 1024" version="1.1" xmlns="http://www.w3.org/2000/svg" p-id="17615" xmlns:xlink="http://www.w3.org/1999/xlink" width="48" height="48"><defs><style type="text/css"></style></defs><path d="M739.933091 542.999273a13.963636 13.963636 0 0 0 0-23.598546L193.629091 174.359273A13.963636 13.963636 0 0 0 172.218182 186.181818v690.036364a13.963636 13.963636 0 0 0 21.410909 11.776l546.304-344.994909z m34.816 55.109818L228.445091 943.104A79.127273 79.127273 0 0 1 107.054545 876.218182V186.181818a79.127273 79.127273 0 0 1 121.390546-66.885818l546.304 344.994909a79.127273 79.127273 0 0 1 0 133.818182zM837.818182 139.636364v784.570181a32.581818 32.581818 0 0 0 65.163636 0V139.636364A32.581818 32.581818 0 0 0 837.818182 139.636364z" fill="#dbdbdb" p-id="17616"></path></svg>