<?xml version="1.0" standalone="no"?><!DOCTYPE svg PUBLIC "-//W3C//DTD SVG 1.1//EN" "http://www.w3.org/Graphics/SVG/1.1/DTD/svg11.dtd"><svg t="1533198631624" class="icon" style="" viewBox="0 0 1024 1024" version="1.1" xmlns="http://www.w3.org/2000/svg" p-id="6838" xmlns:xlink="http://www.w3.org/1999/xlink" width="128" height="128"><defs><style type="text/css"></style></defs><path d="M767.826038 815.789327l-511.652077 0c-35.320366 0-63.95651-28.65354-63.95651-63.995395L192.217452 367.821561c0-35.341856 28.636143-63.995395 63.95651-63.995395l73.325882 0 289.947092-94.79378c12.791302-3.423976 25.94997 4.159731 29.371899 16.95922 3.421929 12.814838-4.156661 25.966343-16.964336 29.389295l-148.139649 48.445265 284.111188 0c35.320366 0 63.95651 28.65354 63.95651 63.995395l0 383.972371C831.782548 787.134764 803.146404 815.789327 767.826038 815.789327zM783.815166 383.819898c0-17.663253-14.309885-31.997698-31.978255-31.997698l-479.673822 0c-17.66837 0-31.978255 14.334445-31.978255 31.997698l0 351.974673c0 17.678603 14.309885 31.997698 31.978255 31.997698l479.673822 0c17.66837 0 31.978255-14.319095 31.978255-31.997698L783.815166 383.819898zM711.864604 687.798537 599.940712 687.798537c-13.239509 0-23.984203-10.735484-23.984203-23.998529s10.744694-23.998529 23.984203-23.998529l111.923892 0c13.239509 0 23.984203 10.735484 23.984203 23.998529S725.10309 687.798537 711.864604 687.798537zM695.875477 543.808386c13.239509 0 23.984203 10.750833 23.984203 23.998529 0 13.263045-10.744694 23.998529-23.984203 23.998529l-79.945637 0c-13.239509 0-23.984203-10.735484-23.984203-23.998529 0-13.246672 10.744694-23.998529 23.984203-23.998529L695.875477 543.808386zM711.864604 495.812352 599.940712 495.812352c-13.239509 0-23.984203-10.751857-23.984203-23.998529 0-13.246672 10.744694-23.998529 23.984203-23.998529l111.923892 0c13.239509 0 23.984203 10.751857 23.984203 23.998529C735.847784 485.060495 725.10309 495.812352 711.864604 495.812352zM408.071184 678.423024c0 0-120.877803-89.322173-120.877803-146.149322 0-81.194068 84.086949-99.81718 120.877803-30.302083 36.790854-69.515098 120.877803-50.891985 120.877803 30.302083C528.948987 589.101875 408.071184 678.423024 408.071184 678.423024z" p-id="6839" fill="#e6e6e6"></path></svg>