<?xml version="1.0" standalone="no"?><!DOCTYPE svg PUBLIC "-//W3C//DTD SVG 1.1//EN" "http://www.w3.org/Graphics/SVG/1.1/DTD/svg11.dtd"><svg t="1533299162443" class="icon" style="" viewBox="0 0 1024 1024" version="1.1" xmlns="http://www.w3.org/2000/svg" p-id="43822" xmlns:xlink="http://www.w3.org/1999/xlink" width="128" height="128"><defs><style type="text/css"></style></defs><path d="M777.2 415.2c3.3-43-5.1-84-22.7-123.1-45.8-101.7-150.4-163.8-261.6-156-124.3 8.8-226.5 104-243.8 227.9-2.4 16.9-2.2 34.1-3.3 51.1H179v-24c1.6-13.8 2.8-27.7 4.9-41.5C204.7 215.4 306.1 107 438.8 77.3c16.1-3.6 32.5-5.6 48.7-8.4h48c2.2 0.5 4.4 1.3 6.6 1.4 33.8 2.9 66.2 11.3 97.6 24C767 146.1 852.3 279.9 844.1 415.2h-66.9z" fill="#8B8989" p-id="43823"></path><path d="M0 607.1c3.4-17.3 5.6-34.9 10.3-51.8C39 451.5 129.6 375 236.6 363.5 379.7 348.2 507.5 446.6 529 589c2.3 15.2 2.4 30.7 2.6 46.1 0.2 18.3-14.4 32.4-32.7 32.5-18.6 0.1-32.4-14.2-33.4-33-1-17.6-1.7-35.5-5.7-52.6C438 489.1 355.2 425.9 260 428.6 165.9 431.2 87.3 498.7 69.9 592 47 714.3 140.4 826.9 266.6 827.5c168.2 0.7 336.5 0.3 504.7 0 78.3-0.1 136.7-34.6 169.7-105.8 28.9-62.5 22.2-124.3-18.6-179.8-40.7-55.5-97.3-79.2-165.9-72-10.5 1.1-21 4.6-30.8 8.7-17 7-36.4 0.4-44.2-16.3-7.6-16.3-1.1-36.4 15.5-43.6 14.4-6.2 28.7-12.1 44.7-14.5 126.8-18.6 247.5 63.3 276.2 188.3 32 139.4-61.4 277.3-202.5 298.6-12.9 2-26.2 2.6-39.3 2.6-169.4 0.2-338.8 0.1-508.1 0.1-135.9 0.1-247.1-96.8-265.9-231.3-0.6-4.2-1.4-8.3-2.1-12.5v-42.9z" fill="#8B8989" p-id="43824"></path><path d="M106.3 623.7c2.7-85.9 75-156.4 157.4-155.4 9.2 0.1 15 4.8 15.5 12.5 0.5 7.6-5.1 13.1-14 14-2.8 0.3-5.7 0.3-8.5 0.6-50.1 4.5-86.7 29.4-109.9 73.8-8.4 16.1-12.8 33.5-13.4 51.8-0.1 2.3-0.1 4.6-0.4 6.8-1 8.3-6.6 13.8-13.8 13.5-7.3-0.3-12.5-6.1-12.8-14.4-0.1-1.8-0.1-3.5-0.1-3.2zM146 681.2c-0.1 7.2-5.8 13.1-12.9 13.2-7.5 0.1-13.5-6.2-13.2-13.8 0.3-7.2 6.2-12.9 13.4-12.8 7.2 0.3 12.8 6.1 12.7 13.4z" fill="#8B8989" p-id="43825"></path></svg>