<?xml version="1.0" standalone="no"?><!DOCTYPE svg PUBLIC "-//W3C//DTD SVG 1.1//EN" "http://www.w3.org/Graphics/SVG/1.1/DTD/svg11.dtd"><svg t="1533294995302" class="icon" style="" viewBox="0 0 1024 1024" version="1.1" xmlns="http://www.w3.org/2000/svg" p-id="36296" xmlns:xlink="http://www.w3.org/1999/xlink" width="128" height="128"><defs><style type="text/css"></style></defs><path d="M648.5 443.7h-273c-18.9 0-34.1-15.3-34.1-34.1s15.3-34.1 34.1-34.1h273.1c18.9 0 34.1 15.3 34.1 34.1s-15.3 34.1-34.2 34.1zM648.5 648.5h-273c-18.9 0-34.1-15.3-34.1-34.1 0-18.9 15.3-34.1 34.1-34.1h273.1c18.9 0 34.1 15.3 34.1 34.1 0 18.9-15.3 34.1-34.2 34.1z" fill="#8B8989" p-id="36297"></path><path d="M950.3 887.5H73.7C33.1 887.5 0 854.4 0 813.7v-95.3c0-35.4 25-65.7 59.5-72.2 64.4-12.1 111.1-68.5 111.1-134.2S123.9 389.9 59.5 377.8C25 371.3 0 341 0 305.6v-95.3c0-40.7 33.1-73.7 73.7-73.7h876.6c40.6 0 73.7 33.1 73.7 73.7v95.3c0 35.4-25 65.7-59.5 72.2-64.4 12.1-111.2 68.5-111.2 134.2S900 634.1 964.4 646.2c34.5 6.5 59.5 36.8 59.5 72.2v95.3c0.1 40.7-33 73.8-73.6 73.8zM73.7 204.8c-3 0-5.5 2.5-5.5 5.5v95.3C168.8 328.9 238.9 413.5 238.9 512S168.8 695.1 72.1 713.3l-3.9 100.5c0 3 2.5 5.5 5.5 5.5h876.6c3 0 5.4-2.5 5.4-5.5v-95.3c-100.5-23.4-170.6-108-170.6-206.5s70.2-183.1 166.8-201.3l3.8-5.1v-95.3c0-3-2.4-5.5-5.4-5.5H73.7z" fill="#8B8989" p-id="36298"></path></svg>