<?xml version="1.0" standalone="no"?><!DOCTYPE svg PUBLIC "-//W3C//DTD SVG 1.1//EN" "http://www.w3.org/Graphics/SVG/1.1/DTD/svg11.dtd"><svg t="1533293447560" class="icon" style="" viewBox="0 0 1024 1024" version="1.1" xmlns="http://www.w3.org/2000/svg" p-id="11580" xmlns:xlink="http://www.w3.org/1999/xlink" width="128" height="128"><defs><style type="text/css"></style></defs><path d="M503.747765 364.935529a117.549176 117.549176 0 0 0-117.428706 117.398589 117.549176 117.549176 0 0 0 117.428706 117.428706 117.549176 117.549176 0 0 0 117.398588-117.428706 117.549176 117.549176 0 0 0-117.398588-117.398589z m0 174.592c-31.533176 0-57.193412-25.690353-57.193412-57.193411s25.690353-57.163294 57.193412-57.163294 57.163294 25.660235 57.163294 57.163294-25.630118 57.193412-57.163294 57.193411zM337.317647 292.171294a30.117647 30.117647 0 1 0-36.683294-47.766588 271.872 271.872 0 0 0-104.628706 241.423059 30.117647 30.117647 0 1 0 59.934118-5.842824A211.636706 211.636706 0 0 1 337.317647 292.171294z" p-id="11581" fill="#8B8989"></path><path d="M393.306353 365.568a30.087529 30.087529 0 1 0-39.303529-45.628235 178.507294 178.507294 0 0 0-60.80753 153.931294 30.117647 30.117647 0 1 0 59.873882-6.415059 116.525176 116.525176 0 0 1 8.101648-57.072941 116.645647 116.645647 0 0 1 32.135529-44.815059z" p-id="11582" fill="#8B8989"></path><path d="M929.008941 765.861647l-85.835294-49.543529a407.642353 407.642353 0 0 0 72.975059-233.984c0-227.418353-185.012706-412.400941-412.400941-412.400942S91.316706 254.915765 91.316706 482.334118s189.590588 412.431059 417.008941 412.431058c51.892706 0 95.713882-9.968941 155.949177-28.852705v58.066823c0 10.752 1.174588 20.720941 10.480941 26.081882 4.638118 2.680471 7.559529 4.035765 12.769882 4.035765s9.276235-1.355294 13.914353-4.035765l228.141176-132.035764c9.336471-5.391059 14.787765-15.329882 14.787765-26.081883s-6.023529-20.690824-15.36-26.081882z m-254.253176-132.035765c-9.336471 5.391059-10.480941 15.329882-10.480941 26.081883v139.776c-60.235294 22.467765-103.454118 34.846118-155.949177 34.846117-194.198588 0-354.484706-157.997176-354.484706-352.195764 0-194.168471 156.852706-352.165647 351.051294-352.165647 194.168471 0 351.593412 157.997176 351.593412 352.165647 0 74.059294-22.919529 143.992471-65.445647 203.715764l-88.304941-52.224a26.473412 26.473412 0 0 0-27.979294 0z m49.754353 237.989647v-159.713882l138.36047 79.841882-138.36047 79.872z" p-id="11583" fill="#8B8989"></path></svg>