<?xml version="1.0" standalone="no"?><!DOCTYPE svg PUBLIC "-//W3C//DTD SVG 1.1//EN" "http://www.w3.org/Graphics/SVG/1.1/DTD/svg11.dtd"><svg t="1533295042382" class="icon" style="" viewBox="0 0 1024 1024" version="1.1" xmlns="http://www.w3.org/2000/svg" p-id="37958" xmlns:xlink="http://www.w3.org/1999/xlink" width="128" height="128"><defs><style type="text/css"></style></defs><path d="M512.577656 1019.969197c-68.484767 0-134.935202-13.418614-197.505259-39.884383-60.422138-25.556049-114.681926-62.137199-161.27101-108.726283s-83.170235-100.849896-108.726284-161.272034C18.610358 647.518486 5.191744 581.067029 5.191744 512.581238s13.418614-134.936225 39.883359-197.506283c25.557072-60.422138 62.137199-114.681926 108.726284-161.27101 46.589085-46.590108 100.848872-83.170235 161.27101-108.727307C377.642454 18.612916 444.092889 5.193279 512.577656 5.193279c68.485791 0 134.936225 13.418614 197.507306 39.883359 60.422138 25.557072 114.681926 62.137199 161.272034 108.726284s83.170235 100.848872 108.727307 161.272033c26.464745 62.570058 39.884382 129.020492 39.884382 197.506283s-13.418614 134.936225-39.884382 197.506283c-25.557072 60.422138-62.138222 114.681926-108.727307 161.272033s-100.849896 83.170235-161.272034 108.726284c-62.570058 26.464745-129.021515 39.883359-197.507306 39.883359z m0-963.610608c-251.561409 0-456.221626 204.66124-456.221625 456.222649 0 251.562433 204.660216 456.222649 456.221625 456.222649 251.563456 0 456.224696-204.660216 456.224696-456.222649 0-251.561409-204.66124-456.222649-456.224696-456.222649z" fill="#8B8989" p-id="37959"></path><path d="M535.756565 260.006755c33.387411 1.810229 58.97416 30.098505 57.147558 63.191205-1.822508 33.086559-30.371728 58.446134-63.757093 56.637951-33.387411-1.809205-58.97109-30.100552-57.147558-63.190181 1.824555-33.091676 30.369681-58.44818 63.757093-56.638975zM385.419582 517.499248s117.300566-85.185124 155.682735-68.576865c38.378076 16.609283-13.516852 121.616872-17.297968 137.152706-3.787256 15.535835-28.110221 134.475737 51.894927 68.575842 0 0 39.998993-26.250874-17.300015 34.28792-57.300031 60.537771-129.733737 79.824023-138.38272 34.286898-6.520507-34.32783 27.732621-158.830425 34.594912-205.726501 2.242064-15.315824-17.296945 0-17.296944 0s-56.241932 39.136346-69.190849 17.144472c-2.064009-3.501754 11.806907-14.249539 17.295922-17.144472z" fill="#8B8989" p-id="37960"></path></svg>