<?xml version="1.0" standalone="no"?><!DOCTYPE svg PUBLIC "-//W3C//DTD SVG 1.1//EN" "http://www.w3.org/Graphics/SVG/1.1/DTD/svg11.dtd"><svg t="1533295020883" class="icon" style="" viewBox="0 0 1024 1024" version="1.1" xmlns="http://www.w3.org/2000/svg" p-id="37109" xmlns:xlink="http://www.w3.org/1999/xlink" width="128" height="128"><defs><style type="text/css"></style></defs><path d="M965.768533 392.669867V919.552c0 26.146133-21.1968 47.377067-47.377066 47.377067H105.608533a47.377067 47.377067 0 0 1-47.377066-47.377067V146.978133c0-26.146133 21.1968-47.377067 47.377066-47.377066h379.869867a28.535467 28.535467 0 1 0 0-57.0368H105.608533a104.448 104.448 0 0 0-104.448 104.413866V919.552A104.448 104.448 0 0 0 105.608533 1024h812.817067a104.448 104.448 0 0 0 104.448-104.448V392.669867a28.535467 28.535467 0 0 0-57.105067 0z" fill="#8B8989" p-id="37110"></path><path d="M1010.688 125.405867l-11.810133-11.810134-0.034134 0.034134L893.5424 8.362667a28.501333 28.501333 0 1 0-40.3456 40.3456L930.133333 125.610667c-238.3872-10.581333-451.584 159.744-489.130666 401.032533-4.061867 26.146133-5.973333 52.565333-5.666134 79.018667a28.5696 28.5696 0 1 0 57.070934-0.682667c-0.3072-23.1424 1.365333-46.353067 4.983466-69.597867a415.982933 415.982933 0 0 1 166.0928-272.7936 416.119467 416.119467 0 0 1 266.308267-79.906133l-76.4928 76.4928a28.5696 28.5696 0 0 0 40.379733 40.3456l117.077334-117.077333c15.701333-15.701333 15.701333-41.2672-0.068267-57.0368z" fill="#8B8989" p-id="37111"></path></svg>