<?xml version="1.0" standalone="no"?><!DOCTYPE svg PUBLIC "-//W3C//DTD SVG 1.1//EN" "http://www.w3.org/Graphics/SVG/1.1/DTD/svg11.dtd"><svg t="1533280515715" class="icon" style="" viewBox="0 0 3668 1024" version="1.1" xmlns="http://www.w3.org/2000/svg" p-id="7498" xmlns:xlink="http://www.w3.org/1999/xlink" width="458.5" height="128"><defs><style type="text/css"></style></defs><path d="M877.125457 771.752858 877.125457 617.163928 771.615178 771.752858Z" p-id="7499" fill="#dbdbdb"></path><path d="M3263.762556 451.7499l161.34386 0 0 117.64764-161.34386 0 0-117.64764Z" p-id="7500" fill="#dbdbdb"></path><path d="M2211.667211 418.138747l235.29528 0 0 30.250898-235.29528 0 0-30.250898Z" p-id="7501" fill="#dbdbdb"></path><path d="M0 0l0 1024 3667.561061 0L3667.561061 0 0 0zM1959.566355 253.43033l151.258793 0c-8.983626-20.170134-23.530389-43.69622-43.69622-70.586863 62.713283-20.170134 104.202318-32.458082 124.36815-36.97571l40.335965 107.562573 40.335965 0L2272.169008 125.701926c89.603926 0 129.939891 2.258814 121.007895 6.724812 0 2.258814-1.153071 5.619069-3.360255 10.085067-6.724812 15.704136-10.085067 31.408271-10.085067 47.060777l0 63.866354 57.141541 0c4.461696-15.652506 10.085067-36.97571 16.805576-63.866354 6.724812-24.631829 11.186508-42.543149 13.445322-53.781287 87.396742 22.424645 131.092962 34.768526 131.092962 36.97571 0 4.517628-3.360255 10.085067-10.085067 16.805576s-12.343881 13.445322-16.805576 20.170134c-4.513326 6.724812-8.983626 15.704136-13.445322 26.890643-4.513326 6.724812-7.87358 12.343881-10.085067 16.805576l151.258793 0 0 164.704115-110.922828 0L2588.131915 330.742005 2067.128928 330.742005l0 90.756997-107.562573 0L1959.566355 253.43033zM2554.525065 357.632649l0 154.62335L2107.464893 512.255999 2107.464893 357.632649 2554.525065 357.632649zM331.890774 909.441557l-31.730959 0c-13.703472-361.590951-42.284999-587.192692-85.684346-676.886971-14.292915-29.13655-37.978193-43.69622-71.098861-43.69622-14.288612 0-34.587821 2.568594-60.841694 7.722993l-5.980479-29.992748L324.141966 113.465607c17.674682 42.284999 31.971899 85.417591 42.840022 129.380566 15.411565 64.554754 27.961967 141.100584 37.685623 229.611674 4.564956 44.552418 10.842307 138.80735 18.853568 282.743283 71.395734-78.821854 113.938883-127.668169 127.668169-146.500225 75.401364-102.24468 118.766291-162.20436 130.232461-179.939278 18.853568-30.263806 31.971899-56.805946 39.428137-79.678052 6.273049-17.145474 9.422481-33.408935 9.422481-48.816198 0-14.85224-13.281827-31.971899-39.86269-51.41491-26.542141-19.391381-39.836875-41.131928-39.836875-65.118382 0-18.264125 7.279835-34.531889 21.835202-48.820501 14.585485-14.292915 31.851429-21.45228 51.858068-21.45228 23.986454 0 45.107441 9.869942 63.405986 29.579708 18.268427 19.714068 27.428456 44.10926 27.428456 73.24581 0 29.140852-4.590771 57.132936-13.699169 83.976252-14.878055 43.429465-42.577569 96.406183-83.120054 158.955971-40.572603 62.558393-105.949135 146.384057-196.202739 251.446876C510.651165 723.853093 447.24518 790.085823 331.890774 909.441557zM1029.261961 842.911954l-61.345087 0 0 93.243844-90.791417 0L877.125457 842.911954l-176.673678 0 0-83.429834 176.673678-257.646783 90.791417 0 0 269.913219 61.345087 0L1029.261961 842.911954zM1072.179428 676.960114c69.433792-103.049248 116.494569-216.23089 141.173726-339.497599l127.732707 43.69622c-6.724812 15.704136-8.979324 21.323205-6.724812 16.805576-69.48112 154.62335-121.007895 262.185924-154.62335 322.68772C1150.592544 705.003828 1114.722577 690.405435 1072.179428 676.960114zM1529.320364 176.122957c-4.513326 8.979324-6.724812 16.805576-6.724812 23.530389l0 615.124541c11.19081 62.704678-48.209545 90.756997-178.149436 84.032185-6.724812-40.335965-21.318902-78.413116-43.69622-114.287385 85.137928 4.513326 119.854824-6.724812 104.202318-33.615455L1404.952214 145.867757l60.506099 0c40.335965-2.207184 61.607539 2.258814 63.866354 13.445322C1531.527548 161.571893 1531.527548 167.190961 1529.320364 176.122957zM1744.445511 707.215314c-44.849291-121.007895-101.990832-225.210213-171.428927-312.606955 38.081453-15.652506 72.79835-33.615455 104.202318-53.781287 64.972097 96.376066 125.473893 197.213827 181.513994 302.521889C1818.392629 663.514792 1780.26815 684.833694 1744.445511 707.215314zM2712.504368 791.247499l-315.96721 0 0 53.781287c8.931996 60.506099-47.060777 84.032185-168.068672 70.586863-6.724812-31.412574-17.958647-61.663472-33.615455-90.756997 69.438095 4.461696 98.578947-6.724812 87.396742-33.615455l-336.133041 0 0-73.95142 336.133041 0 0-26.890643-258.821366 0 0-63.866354 258.821366 0 0-23.530389-292.436822 0c-6.724812-24.636132-16.805576-47.060777-30.250898-67.226608 0-2.211487 13.445322-2.211487 40.335965 0 76.158604 0 163.555346 0 262.185924 0 150.110025-2.211487 263.283062-11.19081 339.493296-26.890643l6.724812 0c20.170134 22.424645 39.182894 47.060777 57.141541 73.95142 2.211487 4.513326 0 7.87358-6.724812 10.085067l-104.202318 0c-53.781287 0-107.562573 2.254512-161.34386 6.724812l0 26.890643 238.655535 0 0 63.866354-235.29528 0 0 26.890643 315.96721 0L2712.500065 791.247499zM3576.369511 875.279684l-416.804971 0 0-299.157331-77.311675 47.060777c-17.958647-33.615455-35.874269-64.972097-53.781287-94.117252l0 373.108752-97.477506 0 0-305.882143c-22.428948 38.124478-50.421032 78.460443-84.032185 121.007895-11.233835-35.822639-29.149457-68.332352-53.781287-97.477506 60.506099-71.692606 101.939202-149.004281 124.36815-231.935025l-104.202318 0 0-87.396742 117.64764 0L2930.994071 132.422435c64.967794 0 99.688993 2.258814 104.202318 6.724812 2.211487 2.258814 2.211487 7.877883 0 16.805576-4.513326 20.170134-6.724812 43.69622-6.724812 70.586863l0 73.95142 107.562573 0 0 87.396742-107.562573 0 0 80.67193 57.141541-33.615455c22.377318 29.149457 47.060777 62.76061 73.95142 100.842064L3159.56454 169.398145l399.999395 0 0 87.396742-295.797076 0 0 107.562573 272.266688 0 0 289.076567-272.266688 0 0 131.092962 312.602653 0L3576.369511 875.279684z" p-id="7502" fill="#dbdbdb"></path></svg>