<?xml version="1.0" standalone="no"?><!DOCTYPE svg PUBLIC "-//W3C//DTD SVG 1.1//EN" "http://www.w3.org/Graphics/SVG/1.1/DTD/svg11.dtd"><svg t="1533291687101" class="icon" style="" viewBox="0 0 1024 1024" version="1.1" xmlns="http://www.w3.org/2000/svg" p-id="2784" xmlns:xlink="http://www.w3.org/1999/xlink" width="128" height="128"><defs><style type="text/css"></style></defs><path d="M312.4 64.7c11.8 0 22.6 4.9 32.3 14.5 132.6 131.9 265.2 263.9 397.8 396l6.6 6.6c9.2 9.2 14.4 23 14.2 38-0.1 14.3-5.3 27.4-14.1 35.9-134.3 129.6-268.4 259.4-402.6 389-9.7 9.4-20.6 14.2-32.4 14.2-20.1 0-40.7-14.9-49-35.4-4.4-11-8.8-32.5 12-52.6l141.4-136.7c72.3-69.9 144.6-139.7 216.8-209.6l6.7-6.5L495 371.6c-73.2-72.9-146.4-145.7-219.6-218.5-15-15-19.2-34.4-11.3-53.4 8.5-20.6 28.4-35 48.3-35z m0 0" p-id="2785" fill="#8B8989"></path></svg>