<?xml version="1.0" standalone="no"?><!DOCTYPE svg PUBLIC "-//W3C//DTD SVG 1.1//EN" "http://www.w3.org/Graphics/SVG/1.1/DTD/svg11.dtd"><svg t="1533352095862" class="icon" style="" viewBox="0 0 1024 1024" version="1.1" xmlns="http://www.w3.org/2000/svg" p-id="7391" xmlns:xlink="http://www.w3.org/1999/xlink" width="128" height="128"><defs><style type="text/css"></style></defs><path d="M892.928 710.656l-137.216-68.608c-9.216-4.608-19.456 2.048-19.456 12.288v84.48c0 43.008-34.816 77.824-77.824 77.824H317.44c-7.68 0-13.824-6.144-13.824-13.824v-19.968c0-7.68 6.144-13.824 13.824-13.824h340.992c16.896 0 30.208-13.312 30.208-30.208V285.696c0-16.896-13.312-30.208-30.208-30.208H141.824c-16.896 0-30.208 13.312-30.208 30.208v452.608c0 16.896 13.312 30.208 30.208 30.208h34.304c8.704 0 19.456 10.752 18.944 24.064-0.512 14.848-10.24 23.04-18.944 23.04h-34.304c-43.008 0-77.824-34.816-77.824-77.824V285.696c0-43.008 34.816-77.824 77.824-77.824h516.608c43.008 0 77.824 34.816 77.824 77.824v84.48c0 10.24 10.752 16.896 19.456 12.288l137.216-68.608c2.048-1.024 4.096-1.536 6.656-1.536 33.792 2.048 60.416 29.696 60.416 64v271.872c0 34.304-26.624 61.952-60.416 64-2.56 0-4.608-0.512-6.656-1.536z m29.184-326.144c0-16.384-13.824-22.528-31.232-22.528l-156.16 75.264v150.016l156.16 75.264c17.408 0 31.232-6.144 31.232-22.528V384.512zM240.128 304.128c35.328 0 64 28.672 64 64s-28.672 64-64 64-64-28.672-64-64S204.8 304.128 240.128 304.128z m0 95.744c17.92 0 31.744-14.336 31.744-31.744s-14.336-31.744-31.744-31.744-31.744 14.336-31.744 31.744 13.824 31.744 31.744 31.744z" fill="#e6e6e6" p-id="7392"></path></svg>