<?xml version="1.0" standalone="no"?><!DOCTYPE svg PUBLIC "-//W3C//DTD SVG 1.1//EN" "http://www.w3.org/Graphics/SVG/1.1/DTD/svg11.dtd"><svg t="1533294752557" class="icon" style="" viewBox="0 0 1024 1024" version="1.1" xmlns="http://www.w3.org/2000/svg" p-id="28872" xmlns:xlink="http://www.w3.org/1999/xlink" width="128" height="128"><defs><style type="text/css"></style></defs><path d="M750.1 770.8H274.2c-68.9 0-133.8-27-182.8-76s-76-114-76-182.8c0-68.9 27-133.8 76-182.8s114-76 182.8-76h475.9c68.9 0 133.8 27 182.8 76s76 114 76 182.8c0 68.9-27 133.8-76 182.8-49 48.9-114 76-182.8 76z" fill="#CD0000" p-id="28873" data-spm-anchor-id="a313x.7781069.0.i52" class=""></path><path d="M580.7 681.4c-45.2-45.2-70.1-105.3-70.1-169.3 0-63.9 24.9-124.1 70.1-169.3 45.2-45.2 105.3-70.1 169.3-70.1s124.1 24.9 169.3 70.1c45.2 45.2 70.1 105.3 70.1 169.3 0 63.9-24.9 124.1-70.1 169.3-45.2 45.2-105.3 70.1-169.3 70.1s-124.1-24.9-169.3-70.1z" fill="#212121" p-id="28874" data-spm-anchor-id="a313x.7781069.0.i55" class="selected"></path></svg>