<?xml version="1.0" standalone="no"?><!DOCTYPE svg PUBLIC "-//W3C//DTD SVG 1.1//EN" "http://www.w3.org/Graphics/SVG/1.1/DTD/svg11.dtd"><svg t="1533170047866" class="icon" style="" viewBox="0 0 1024 1024" version="1.1" xmlns="http://www.w3.org/2000/svg" p-id="16314" xmlns:xlink="http://www.w3.org/1999/xlink" width="128" height="128"><defs><style type="text/css"></style></defs><path d="M870.28063614 880.90108526c-34.49970878 55.15240693-65.06548594 0-65.06548594 0-28.67166035-146.99633643-140.78424815-261.36549404-292.121042-261.36549404-273.00000586 0-294.03584385 261.36549404-294.03584385 261.36549404l0 0c-37.47758994 51.04848955-65.34159873 0-65.34159872 0 0-135.02095576 90.22592724-256.11215625 218.69752324-304.60727638C306.15970977 531.2235667 262.62022959 455.22509346 262.62022959 369.0617126c0-138.33970576 112.13507285-250.47477773 250.47477773-250.47477773 138.34060489 0 250.47477773 112.13507285 250.47477774 250.47477773 0 88.97217714-46.51736133 166.90613731-116.43235928 211.33871191C855.24283144 658.58711416 870.28063614 880.90108526 870.28063614 880.90108526zM698.22818721 369.0617126c0-102.24537802-82.88960097-185.13407901-185.13407901-185.13407901-102.24447802 0-185.13407901 82.88870185-185.134079 185.13407901 0 102.24447802 82.88960097 185.13227989 185.134079 185.13227988C615.34038535 554.19399248 698.22818721 471.30619062 698.22818721 369.0617126z" fill="#da3d25" p-id="16315"></path></svg>