<?xml version="1.0" standalone="no"?><!DOCTYPE svg PUBLIC "-//W3C//DTD SVG 1.1//EN" "http://www.w3.org/Graphics/SVG/1.1/DTD/svg11.dtd"><svg t="1533300851214" class="icon" style="" viewBox="0 0 1024 1024" version="1.1" xmlns="http://www.w3.org/2000/svg" p-id="67557" xmlns:xlink="http://www.w3.org/1999/xlink" width="128" height="128"><defs><style type="text/css"></style></defs><path d="M913.8176 730.9312c-6.3488-22.1184-28.4672-41.1648-50.7904-44.4416l-47.5136-6.3488c-6.3488 0-12.6976-6.3488-15.7696-9.4208l-22.1184-44.4416c-9.4208-22.1184-31.744-34.816-57.1392-34.816-25.3952 0-47.5136 12.6976-57.1392 34.816l-22.1184 41.1648c-3.072 6.3488-9.4208 9.4208-15.7696 9.4208l-47.5136 6.3488c-25.3952 3.072-44.4416 19.0464-50.7904 44.4416-6.3488 22.1184 0 47.5136 15.7696 66.56l34.816 34.816c3.072 3.072 6.3488 9.4208 6.3488 15.7696l-6.3488 47.5136c-3.072 25.3952 6.3488 47.5136 25.3952 63.488 19.0464 15.7696 44.4416 15.7696 66.56 6.3488l38.0928-19.0464c9.4208-3.072 19.0464-3.072 25.3952 0l38.0928 19.0464c9.4208 6.3488 19.0464 6.3488 28.4672 6.3488 12.6976 0 25.3952-3.072 38.0928-12.6976 19.0464-15.7696 28.4672-38.0928 25.3952-63.488l-6.3488-41.1648c-3.072-9.4208 0-19.0464 9.4208-25.3952l31.744-31.744c15.7696-15.5648 22.1184-40.96 15.7696-63.0784z m-41.1648 38.0928L840.9088 800.768c-15.7696 15.7696-22.1184 34.816-19.0464 57.1392l9.4208 41.1648c3.072 9.4208-3.072 22.1184-12.6976 28.4672-9.4208 6.3488-19.0464 6.3488-28.4672 3.072l-38.0928-19.0464c-9.4208-6.3488-19.0464-6.3488-28.4672-6.3488s-19.0464 3.072-28.4672 6.3488l-41.1648 19.0464c-9.4208 6.3488-22.1184 3.072-28.4672-3.072-9.4208-6.3488-12.6976-15.7696-12.6976-28.4672l9.4208-47.5136c3.072-19.0464-3.072-34.816-15.7696-47.5136l-34.816-34.816c-9.4208-6.3488-9.4208-19.0464-6.3488-28.4672 3.072-9.4208 12.6976-19.0464 22.1184-19.0464l47.5136-6.3488c19.0464-3.072 31.744-12.6976 41.1648-28.4672l22.1184-44.4416c6.3488-9.4208 15.7696-15.7696 25.3952-15.7696 9.4208 0 22.1184 6.3488 25.3952 15.7696l22.1184 44.4416c6.3488 15.7696 22.1184 28.4672 41.1648 28.4672l47.5136 6.3488c9.4208 3.072 19.0464 9.4208 22.1184 19.0464 0.2048 9.216-2.8672 21.9136-9.216 28.2624zM793.1904 324.608c0-149.0944-120.6272-269.7216-269.7216-269.7216S253.7472 175.5136 253.7472 324.608c0 104.6528 60.2112 196.8128 149.0944 241.2544-165.0688 50.7904-295.1168 196.8128-295.1168 349.184 0 12.6976 9.4208 25.3952 25.3952 25.3952 12.6976 0 25.3952-9.4208 25.3952-25.3952 0-161.792 184.1152-320.512 368.2304-320.512 145.8176 0 266.4448-120.6272 266.4448-269.9264zM523.4688 546.816c-123.6992 0-222.208-98.304-222.208-222.208S399.7696 102.4 523.4688 102.4s222.208 98.304 222.208 222.208S644.096 546.816 523.4688 546.816z" fill="#e6e6e6" p-id="67558"></path></svg>