<?xml version="1.0" standalone="no"?><!DOCTYPE svg PUBLIC "-//W3C//DTD SVG 1.1//EN" "http://www.w3.org/Graphics/SVG/1.1/DTD/svg11.dtd"><svg t="1533519927389" class="icon" style="" viewBox="0 0 1024 1024" version="1.1" xmlns="http://www.w3.org/2000/svg" p-id="4561" xmlns:xlink="http://www.w3.org/1999/xlink" width="128" height="128"><defs><style type="text/css"></style></defs><path d="M511.957333 535.338667c-132.821333 0-240.896-108.074667-240.896-240.896s108.074667-240.896 240.896-240.896 240.896 108.074667 240.896 240.896-108.074667 240.896-240.896 240.896z m0-417.792c-97.536 0-176.896 79.36-176.896 176.896s79.36 176.896 176.896 176.896 176.896-79.36 176.896-176.896-79.36-176.896-176.896-176.896z" fill="#E61E42" p-id="4562"></path><path d="M918.229333 970.453333a32 32 0 0 1-32-32c0-206.336-167.893333-374.229333-374.229333-374.229333s-374.229333 167.893333-374.229333 374.229333a32 32 0 0 1-64 0c0-241.621333 196.565333-438.229333 438.229333-438.229333 241.621333 0 438.229333 196.608 438.229333 438.229333a32 32 0 0 1-32 32z" fill="#E61E42" p-id="4563"></path></svg>