<?xml version="1.0" standalone="no"?><!DOCTYPE svg PUBLIC "-//W3C//DTD SVG 1.1//EN" "http://www.w3.org/Graphics/SVG/1.1/DTD/svg11.dtd"><svg t="1533294490013" class="icon" style="" viewBox="0 0 1043 1024" version="1.1" xmlns="http://www.w3.org/2000/svg" p-id="18145" xmlns:xlink="http://www.w3.org/1999/xlink" width="130.375" height="128"><defs><style type="text/css"></style></defs><path d="M670.72 82.221176c-13.552941 0-24.696471-11.143529-24.696471-24.997647s11.143529-24.997647 24.696471-24.997647l118.964706 0C903.529412 31.924706 996.894118 126.494118 996.894118 241.844706l0 96.376471c0 13.854118-11.143529 24.997647-24.696471 24.997647-13.552941 0-24.696471-11.143529-24.696471-24.997647l0-96.376471c0-87.943529-70.776471-159.623529-157.515294-159.623529L670.72 82.221176 670.72 82.221176zM947.2 699.934118c0-13.854118 11.143529-24.997647 24.696471-24.997647 13.552941 0 24.696471 11.143529 24.696471 24.997647l0 96.376471c0 115.350588-93.364706 209.92-207.209412 209.92l-118.964706 0c-13.552941 0-24.696471-11.143529-24.696471-24.997647 0-13.854118 11.143529-24.997647 24.696471-24.997647l118.964706 0c86.738824 0 157.515294-71.68 157.515294-159.623529L946.898824 699.934118 947.2 699.934118zM361.110588 955.632941c13.552941 0 24.696471 11.143529 24.696471 24.997647 0 13.854118-11.143529 24.997647-24.696471 24.997647L242.145882 1005.628235c-114.145882 0-207.209412-94.268235-207.209412-209.92l0-96.376471c0-13.854118 11.143529-24.997647 24.696471-24.997647s24.696471 11.143529 24.696471 24.997647l0 96.376471c0 87.642353 71.077647 159.623529 157.515294 159.623529L361.110588 955.331765 361.110588 955.632941zM84.630588 337.92c0 13.854118-11.143529 24.997647-24.696471 24.997647s-24.696471-11.143529-24.696471-24.997647l0-96.376471c0-115.350588 93.364706-209.92 207.209412-209.92l118.964706 0c13.552941 0 24.696471 11.143529 24.696471 24.997647s-11.143529 24.997647-24.696471 24.997647L242.145882 81.618824c-86.738824 0-157.515294 71.68-157.515294 159.623529L84.630588 337.92z" p-id="18146" fill="#8B8989"></path><path d="M59.934118 543.924706c-13.552941 0-24.696471-11.143529-24.696471-24.997647s11.143529-24.997647 24.696471-24.997647l912.263529 0c13.552941 0 24.696471 11.143529 24.696471 24.997647s-11.143529 24.997647-24.696471 24.997647L59.934118 543.924706z" p-id="18147" fill="#8B8989"></path></svg>