<?xml version="1.0" standalone="no"?><!DOCTYPE svg PUBLIC "-//W3C//DTD SVG 1.1//EN" "http://www.w3.org/Graphics/SVG/1.1/DTD/svg11.dtd"><svg t="1533199198627" class="icon" style="" viewBox="0 0 1024 1024" version="1.1" xmlns="http://www.w3.org/2000/svg" p-id="9313" xmlns:xlink="http://www.w3.org/1999/xlink" width="128" height="128"><defs><style type="text/css"></style></defs><path d="M672 625.109333 672 192.085333c0-17.749333 14.421333-32.085333 31.701333-32.085333l128.597333 0c17.493333 0 31.701333 14.208 31.701333 32 0 17.664-14.421333 32-31.701333 32L736 224l0 514.218667c0 0 0 0 0 0-1.194667 69.674667-58.026667 125.781333-128 125.781333-70.698667 0-128-57.301333-128-128s57.301333-128 128-128C631.296 608 653.184 614.229333 672 625.109333L672 625.109333zM160 640c0-17.664 14.506667-32 32.426667-32l191.146667 0c17.92 0 32.426667 14.208 32.426667 32 0 17.664-14.506667 32-32.426667 32L192.426667 672C174.506667 672 160 657.792 160 640zM160 480c0-17.664 14.378667-32 32.213333-32l383.573333 0c17.792 0 32.213333 14.208 32.213333 32 0 17.664-14.378667 32-32.213333 32l-383.573333 0C174.421333 512 160 497.792 160 480zM160 320c0-17.664 14.378667-32 32.213333-32l383.573333 0c17.792 0 32.213333 14.208 32.213333 32 0 17.664-14.378667 32-32.213333 32l-383.573333 0C174.421333 352 160 337.792 160 320z" p-id="9314" fill="#e6e6e6"></path></svg>