<?xml version="1.0" standalone="no"?><!DOCTYPE svg PUBLIC "-//W3C//DTD SVG 1.1//EN" "http://www.w3.org/Graphics/SVG/1.1/DTD/svg11.dtd"><svg t="1533294865932" class="icon" style="" viewBox="0 0 1024 1024" version="1.1" xmlns="http://www.w3.org/2000/svg" p-id="30260" xmlns:xlink="http://www.w3.org/1999/xlink" width="128" height="128"><defs><style type="text/css"></style></defs><path d="M716.8 761.6l-256-192A30.72 30.72 0 0 1 448 544V224c0-17.92 14.08-32 32-32s32 14.08 32 32v304l243.2 182.4c14.08 10.88 17.28 30.72 6.4 44.8-6.4 8.32-16 12.8-25.6 12.8-6.4 0-13.44-1.92-19.2-6.4z" fill="#8B8989" p-id="30261"></path><path d="M960 512c0-247.04-200.96-448-448-448S64 264.96 64 512s200.96 448 448 448 448-200.96 448-448z m64 0c0 282.24-229.76 512-512 512S0 794.24 0 512 229.76 0 512 0s512 229.76 512 512z" fill="#8B8989" p-id="30262"></path></svg>