<?xml version="1.0" standalone="no"?><!DOCTYPE svg PUBLIC "-//W3C//DTD SVG 1.1//EN" "http://www.w3.org/Graphics/SVG/1.1/DTD/svg11.dtd"><svg t="1533523340582" class="icon" style="" viewBox="0 0 1024 1024" version="1.1" xmlns="http://www.w3.org/2000/svg" p-id="8614" xmlns:xlink="http://www.w3.org/1999/xlink" width="32" height="32"><defs><style type="text/css"></style></defs><path d="M512 256c-47.104 0-85.504-38.4-85.504-85.504s38.4-85.504 85.504-85.504 85.504 38.4 85.504 85.504S559.104 256 512 256z m0 341.504c-47.104 0-85.504-38.4-85.504-85.504s38.4-85.504 85.504-85.504 85.504 38.4 85.504 85.504-38.4 85.504-85.504 85.504z m0 340.992c-47.104 0-85.504-38.4-85.504-85.504s38.4-85.504 85.504-85.504 85.504 38.4 85.504 85.504c0 47.616-38.4 85.504-85.504 85.504z" p-id="8615" fill="#dbdbdb"></path></svg>