<?xml version="1.0" standalone="no"?><!DOCTYPE svg PUBLIC "-//W3C//DTD SVG 1.1//EN" "http://www.w3.org/Graphics/SVG/1.1/DTD/svg11.dtd"><svg t="1533301524961" class="icon" style="" viewBox="0 0 1024 1024" version="1.1" xmlns="http://www.w3.org/2000/svg" p-id="70866" xmlns:xlink="http://www.w3.org/1999/xlink" width="128" height="128"><defs><style type="text/css"></style></defs><path d="M512 413.205926c-54.564733 0-98.795097 44.233434-98.795097 98.795097 0 54.562686 44.230364 98.79305 98.795097 98.79305 54.562686 0 98.795097-44.230364 98.795097-98.79305C610.795097 457.438337 566.561663 413.205926 512 413.205926zM116.817566 413.205926c-54.564733 0-98.795097 44.233434-98.795097 98.795097 0 54.562686 44.230364 98.79305 98.795097 98.79305 54.562686 0 98.795097-44.230364 98.795097-98.79305C215.613686 457.438337 171.380252 413.205926 116.817566 413.205926zM907.181411 413.205926c-54.564733 0-98.795097 44.233434-98.795097 98.795097 0 54.562686 44.230364 98.79305 98.795097 98.79305 54.562686 0 98.795097-44.230364 98.795097-98.79305C1005.977531 457.438337 961.744098 413.205926 907.181411 413.205926z" p-id="70867" fill="#8B8989"></path></svg>