<?xml version="1.0" standalone="no"?><!DOCTYPE svg PUBLIC "-//W3C//DTD SVG 1.1//EN" "http://www.w3.org/Graphics/SVG/1.1/DTD/svg11.dtd"><svg t="1533279808983" class="icon" style="" viewBox="0 0 1024 1024" version="1.1" xmlns="http://www.w3.org/2000/svg" p-id="1758" xmlns:xlink="http://www.w3.org/1999/xlink" width="128" height="128"><defs><style type="text/css"></style></defs><path d="M726.624743 387.318575c-16.156949 37.700572-36.893185 68.399696-62.205636 91.559116l13.464636 16.156949c16.96536-16.427102 32.045793-35.815645 45.510429-57.897526l140.839397 0c-0.538258 56.012599-1.615797 89.404037-3.231595 100.17636-1.346668 10.7713-6.463189 16.156949-15.349562 16.156949-5.38565 0-11.57971-0.538258-18.850286-1.077539l4.578263 17.503618c8.078986 0.538258 13.733765 0.807387 16.96536 0.807387 18.581157 0 29.083327-8.617244 31.506512-25.851733 2.693337-16.156949 4.038981-58.166655 4.038981-126.297222L733.62619 418.554935c4.309134-8.617244 8.617244-17.772747 12.387097-26.929272L726.624743 387.318575zM720.969964 535.697678l0-46.317816 77.825351 0 0 46.317816L720.969964 535.697678zM818.183859 471.606092 701.580397 471.606092l0 138.684319c0 15.080433 8.348115 22.889267 25.313475 22.889267l141.377655 0c12.387097-0.538258 20.735212-5.923908 24.775217-16.696231 2.423184-7.001447 4.309134-18.850286 5.923908-35.546516l-18.312028-5.923908c-1.346668 16.696231-2.962466 27.46753-5.116521 31.776664-2.423184 5.116521-6.732318 7.809857-12.926378 8.078986L734.165471 614.868673c-8.617244 0-13.195507-4.038981-13.195507-11.57971l0-49.818539 97.213895 0L818.183859 471.606092zM579.054051 533.004341l-17.234489 8.348115c16.427102 25.044346 31.776664 53.588392 46.048687 85.365056l18.042899-9.155502C611.098821 586.862885 595.48013 558.856074 579.054051 533.004341zM441.715378 534.620138c-13.464636 30.429996-29.621585 56.550857-48.471871 78.632738l16.696231 11.848839c18.581157-23.15942 34.738106-50.62695 48.742023-82.133461L441.715378 534.620138zM406.708142 513.884926l98.560563 0 0 90.750706c0 8.617244-4.038981 13.195507-12.117968 13.195507-10.7713 0-21.812751-0.538258-33.392461-1.346668l4.038981 19.119415 36.084774 0c16.696231 0 25.313475-8.886373 25.313475-26.120862l0-95.598097 98.291434 0 0-18.850286-98.291434 0 0-52.781005-19.927825 0 0 52.781005-77.01694 0c4.30811-19.927825 8.886373-42.547963 13.195507-68.130567 67.861438-1.077539 122.527369-7.270576 163.997794-19.119415l-9.155502-16.427102c-39.585498 12.387097-91.289987 18.850286-155.11142 19.119415-5.38565-0.269129-10.7713-0.807387-15.618691-1.615797C421.787552 439.29117 415.325387 474.299428 406.708142 513.884926zM200.161362 433.90552l87.78824 0c-3.231595 15.080433-8.617244 29.352456-15.88782 43.086221l-58.166655 0C209.587017 461.37305 205.008754 446.831898 200.161362 433.90552zM137.686597 416.132774l0 17.772747 42.009705 0c5.38565 13.195507 10.502171 27.46753 14.811304 43.086221L125.029348 476.991742l0 18.042899 237.51401 0 0-18.042899-71.631291 0c7.001447-13.733765 12.387097-28.005788 16.427102-43.086221l42.817092 0 0-17.772747-95.059839 0c-3.769853-10.7713-7.809857-20.196954-12.117968-28.545069l-20.466083 3.231595c4.578263 7.539705 8.886373 16.156949 12.926378 25.313475L137.686597 416.132774zM180.503689 562.356797l0-28.545069 127.64389 0 0 28.545069L180.503689 562.356797zM180.503689 607.059839l0-28.005788 127.64389 0 0 28.005788L180.503689 607.059839zM327.805252 516.578263 160.844993 516.578263l0 120.103162 19.658696 0 0-12.387097 127.64389 0 0 12.387097 19.658696 0L327.806276 516.578263z" p-id="1759" fill="#cf1b04"></path><path d="M27.277196 350.240173c0-22.206723 18.074621-40.207667 40.421537-40.207667l888.602534 0c22.324403 0 40.421537 17.878147 40.421537 40.207667l0 323.520678c0 22.206723-18.074621 40.207667-40.421537 40.207667L67.698733 713.968517c-22.324403 0-40.421537-17.878147-40.421537-40.207667L27.277196 350.240173zM40.741832 350.240173 40.741832 350.240173l0 323.520678c0 14.8287 12.003358 26.743031 26.956901 26.743031l888.602534 0c14.917728 0 26.956901-11.980845 26.956901-26.743031L983.258168 350.240173c0-14.8287-12.003358-26.743031-26.956901-26.743031L67.698733 323.497142C52.781005 323.496119 40.741832 335.476964 40.741832 350.240173z" p-id="1760" fill="#cf1b04"></path></svg>