<?xml version="1.0" standalone="no"?><!DOCTYPE svg PUBLIC "-//W3C//DTD SVG 1.1//EN" "http://www.w3.org/Graphics/SVG/1.1/DTD/svg11.dtd"><svg t="1533192474711" class="icon" style="" viewBox="0 0 1024 1024" version="1.1" xmlns="http://www.w3.org/2000/svg" p-id="2027" xmlns:xlink="http://www.w3.org/1999/xlink" width="128" height="128"><defs><style type="text/css"></style></defs><path d="M320.609507 479.964376h-44.481074c-14.773472 0-24.76401 9.858532-24.76401 24.762987 0 14.971993 9.825786 24.796756 24.76401 24.796756h44.481074c14.771425 0 24.795732-9.824763 24.795732-24.796756-4.945639-14.770402-14.938224-24.762987-24.795732-24.762987z m0 177.958065h-44.481074c-14.773472 0-24.76401 9.825786-24.76401 24.795732 0 14.904455 9.825786 24.76401 24.76401 24.76401h44.481074c14.771425 0 24.795732-9.859555 24.795732-24.76401-4.945639-14.804171-14.938224-24.795732-24.795732-24.795732zM538.134729 479.964376h-44.481074c-14.772448 0-24.797779 9.858532-24.797779 24.762987 0 14.971993 9.826809 24.796756 24.797779 24.796756h44.481074c14.772448 0 24.796756-9.824763 24.796755-24.796756 0-14.770402-10.025331-24.762987-24.796755-24.762987z m0 177.958065h-44.481074c-14.772448 0-24.797779 9.825786-24.797779 24.795732 0 14.904455 9.826809 24.76401 24.797779 24.76401h44.481074c14.772448 0 24.796756-9.859555 24.796755-24.76401 0-14.97097-10.025331-24.795732-24.796755-24.795732zM760.573867 479.964376h-44.514843c-14.771425 0-24.762987 9.858532-24.762987 24.762987 0 14.971993 9.858532 24.796756 24.762987 24.796756h44.514843c14.771425 0 24.795732-9.824763 24.795732-24.796756 0-14.770402-10.024308-24.762987-24.795732-24.762987z m0 177.958065h-44.514843c-14.771425 0-24.762987 9.825786-24.762987 24.795732 0 14.904455 9.858532 24.76401 24.762987 24.76401h44.514843c14.771425 0 24.795732-9.859555 24.795732-24.76401 0-14.97097-10.024308-24.795732-24.795732-24.795732z" p-id="2028" fill="#ffffff"></path><path d="M844.623122 128.994909h-91.836615V109.277846c0-14.772448-9.858532-24.76401-24.796756-24.76401-14.938224 0-24.628934 9.992585-24.628934 24.76401v19.717063h-368.113938V109.277846c0-14.772448-9.858532-24.76401-24.796756-24.76401s-24.796756 9.825786-24.796756 24.76401v19.717063H182.2186c-64.199161 0-118.671797 54.305837-118.671797 118.671797V816.161395c0 64.198138 54.339606 118.671797 118.671797 118.671796h657.491628c64.164369 0 118.671797-54.339606 118.671797-118.671796V247.666706c4.910846-64.165392-49.560766-118.671797-113.758903-118.671797zM193.347055 178.555675h92.77294v64.198138c0 14.772448 9.891278 24.76401 24.795732 24.76401 14.772448 0 24.796756-9.825786 24.796756-24.76401v-64.198138h367.646288v64.198138c0 14.772448 9.859555 24.76401 24.797779 24.76401s24.795732-9.825786 24.795732-24.76401v-64.198138h92.135421c39.570227 0 61.794391 29.709649 61.794391 69.278853v49.42569H115.012965v-49.42569c0-40.036855 38.765909-69.278853 78.33409-69.278853z m640.315434 706.71675H194.483948c-39.568181 0-79.938634-29.708626-79.938634-69.277829v-469.472418h792.204773V816.161395c0.13303 38.299281-33.553187 69.111031-73.087598 69.11103z" p-id="2029" fill="#ffffff"></path></svg>