<?xml version="1.0" standalone="no"?><!DOCTYPE svg PUBLIC "-//W3C//DTD SVG 1.1//EN" "http://www.w3.org/Graphics/SVG/1.1/DTD/svg11.dtd"><svg t="1533349889827" class="icon" style="" viewBox="0 0 1024 1024" version="1.1" xmlns="http://www.w3.org/2000/svg" p-id="4224" xmlns:xlink="http://www.w3.org/1999/xlink" width="128" height="128"><defs><style type="text/css"></style></defs><path d="M757.200538 568.836473c-23.565718-15.314801-48.072879-28.008914-73.155137-38.389332 4.811586-4.094248 9.644661-8.170077 14.18814-12.632715 24.549116-24.056905 43.979654-52.169173 57.71754-83.596953 14.700817-33.6811 22.154579-69.511143 22.154579-106.488313 0-146.760528-119.407554-266.168082-266.168082-266.168082-146.780994 0-266.168082 119.407554-266.168082 266.168082 0 81.304747 36.731576 154.070005 94.345762 202.943109C176.853917 598.422302 61.562101 759.146866 61.562101 946.630888c0 8.721639 7.063883 15.785521 15.805988 15.785521 8.721639 0 15.785521-7.084349 15.785521-15.785521 0-181.301206 116.00813-335.575872 277.530874-393.702734 40.989553 25.797549 89.330538 40.97011 141.253094 40.97011 50.89925 0 99.628068-14.414291 141.703349-40.990576 29.729092 10.586103 58.741869 24.52865 86.360903 42.443671 7.268544 4.710278 17.075911 2.661619 21.847587-4.647857C766.619048 583.373561 764.510014 573.587684 757.200538 568.836473L757.200538 568.836473zM279.041274 327.730183c0-128.415718 104.481609-232.896304 232.897328-232.896304s232.896304 104.480586 232.896304 232.896304c0 32.389688-6.53074 63.736627-19.36914 93.179193-12.018731 27.497261-29.011754 52.066843-50.529837 73.134671-43.754526 42.934858-101.655238 66.583464-163.017794 66.583464C383.502417 560.626487 279.041274 456.125435 279.041274 327.730183L279.041274 327.730183z" p-id="4225" fill="#e6e6e6"></path><path d="M834.471412 947.081143c0 8.476045-6.878664 15.355733-15.355733 15.355733l0 0c-8.477069 0-15.355733-6.879688-15.355733-15.355733L803.759947 691.151239c0-8.476045 6.878664-15.355733 15.355733-15.355733l0 0c8.477069 0 15.355733 6.879688 15.355733 15.355733L834.471412 947.081143 834.471412 947.081143z" p-id="4226" fill="#e6e6e6"></path><path d="M947.081143 803.76097c8.476045 0 15.355733 6.878664 15.355733 15.355733l0 0c0 8.477069-6.880711 15.355733-15.355733 15.355733L691.150216 834.472436c-8.476045 0-15.355733-6.878664-15.355733-15.355733l0 0c0-8.477069 6.879688-15.355733 15.355733-15.355733L947.081143 803.76097 947.081143 803.76097z" p-id="4227" fill="#e6e6e6"></path></svg>