<?xml version="1.0" standalone="no"?><!DOCTYPE svg PUBLIC "-//W3C//DTD SVG 1.1//EN" "http://www.w3.org/Graphics/SVG/1.1/DTD/svg11.dtd"><svg t="1533294316908" class="icon" style="" viewBox="0 0 1024 1024" version="1.1" xmlns="http://www.w3.org/2000/svg" p-id="14714" xmlns:xlink="http://www.w3.org/1999/xlink" width="128" height="128"><defs><style type="text/css"></style></defs><path d="M324.045769 172.903955c79.305207 0.170892 142.580323 47.75463 142.580323 47.75463 5.968945 7.163143 26.946722 15.690354 36.839023 15.690354l46.38954 0c10.701736-0.212848 30.40345-5.073552 38.204114-15.690354 0 0 63.274092-47.412846 141.897777-47.75463s142.126998 53.990658 184.195116 128.254036c84.251869 148.721183 81.185021 307.671335 64.810075 415.461293-16.373922 107.789958-96.873328 100.966553-96.873328 100.966553l-10.830673-1.107217c-70.863954-9.977235-169.31829-159.860894-175.070294-168.418804-6.993275-10.403954-17.140379-16.799618-28.993335-16.71366-12.96222 0.093121-268.789793-0.001023-282.262642 0.169869s-23.493064 7.588839-29.67588 16.884552-104.121406 161.682379-171.531702 167.56639l-8.314363 0.38374c0 0-81.948407 9.081843-99.686397-102.458533s-15.691377-262.989693 71.631434-423.648766C179.370739 231.338832 244.740562 172.733063 324.045769 172.903955zM325.068052 214.859509c-66.514903 0.340761-116.444059 56.440453-134.564765 86.128613-100.453876 164.581406-85.445044 335.814302-73.678046 408.299173s58.328453 66.00325 58.328453 66.00325l7.503904 0.149403c44.854581-13.665231 129.080867-138.314159 140.875494-155.180292 11.792581-16.864086 37.008892-29.845749 59.863413-30.187533 22.851451-0.341784 265.717827-0.021489 282.944164 0 17.22429 0.021489 41.443901 8.18645 59.863413 30.699186 18.416442 22.512736 94.91165 130.983193 145.821133 154.519236l9.209756 0c0 0 45.195342 4.093225 56.281841-61.910025 11.083429-66.00325 29.164227-249.175059-71.631434-411.880745-25.060769-40.453341-63.956637-86.469374-134.564765-86.640266-70.606081-0.170892-130.301671 47.75463-130.301671 47.75463-16.798595 13.814634-48.776913 14.326287-48.776913 14.326287l-50.483788 0c0 0-37.008892-3.581572-47.072085-14.326287C454.687178 262.613116 391.582955 214.517725 325.068052 214.859509zM435.073468 404.852678l-95.67913 0 0.511653-95.67913-41.955554 0-0.511653 95.67913-95.167476 0 0 40.932248 95.167476 0 0 97.214089 42.467207 0-0.511653-97.214089 95.67913 0L435.073468 404.852678zM665.463696 283.718807c-37.301558 0-67.539232 30.237675-67.539232 67.538209 0 37.299511 30.237675 67.538209 67.539232 67.538209 37.299511 0 67.537186-30.238698 67.537186-67.538209C733.000881 313.956482 702.763207 283.718807 665.463696 283.718807zM692.068633 351.257016c0 14.693654-11.914354 26.605961-26.605961 26.605961-14.693654 0-26.605961-11.912307-26.605961-26.605961 0-14.693654 11.912307-26.605961 26.605961-26.605961C680.156326 324.651055 692.068633 336.563362 692.068633 351.257016zM805.820374 360.209922c-37.301558 0-67.539232 30.237675-67.539232 67.538209 0 37.299511 30.237675 67.538209 67.539232 67.538209 37.299511 0 67.537186-30.238698 67.537186-67.538209C873.35756 390.447597 843.118861 360.209922 805.820374 360.209922zM832.425312 427.748131c0 14.693654-11.914354 26.605961-26.605961 26.605961-14.693654 0-26.605961-11.912307-26.605961-26.605961 0-14.693654 11.912307-26.605961 26.605961-26.605961C820.513004 401.14217 832.425312 413.054477 832.425312 427.748131zM665.463696 431.841356c-37.301558 0-67.539232 30.237675-67.539232 67.538209 0 37.299511 30.237675 67.538209 67.539232 67.538209 37.299511 0 67.537186-30.238698 67.537186-67.538209C733.000881 462.07903 702.763207 431.841356 665.463696 431.841356zM692.068633 499.379565c0 14.693654-11.914354 26.605961-26.605961 26.605961-14.693654 0-26.605961-11.912307-26.605961-26.605961 0-14.691607 11.912307-26.605961 26.605961-26.605961C680.156326 472.773603 692.068633 484.685911 692.068633 499.379565z" p-id="14715" fill="#8B8989"></path></svg>