<?xml version="1.0" standalone="no"?><!DOCTYPE svg PUBLIC "-//W3C//DTD SVG 1.1//EN" "http://www.w3.org/Graphics/SVG/1.1/DTD/svg11.dtd"><svg t="1533297581397" class="icon" style="" viewBox="0 0 1024 1024" version="1.1" xmlns="http://www.w3.org/2000/svg" p-id="42958" xmlns:xlink="http://www.w3.org/1999/xlink" width="128" height="128"><defs><style type="text/css"></style></defs><path d="M618.450535 1020.929311H402.478777c-59.366645 0-107.474098-49.131016-107.474098-109.521223v-114.639038c0-12.282754-7.16494-23.541945-16.377006-30.706885-115.662601-78.814338-183.217748-211.877507-182.194185-352.105615 2.047126-220.06601 175.029245-400.213069 393.04813-413.519386 115.662601-5.117814 223.136698 34.801136 308.092413 114.639037 82.90859 79.837901 127.945355 187.311999 127.945355 303.998163 0 138.180983-68.57871 268.173463-182.194185 345.964238-11.259191 7.16494-16.377005 18.424131-16.377005 30.706886v114.639037c0 61.41377-49.131016 110.544786-108.497661 110.544786zM510.976437 74.133688h-18.424131c-176.052808 9.212066-321.398731 161.722928-323.445856 340.846424-2.047126 116.686163 54.24883 224.160261 149.440174 289.668283 30.706885 20.471257 48.107453 54.24883 48.107453 91.097093v116.686163c0 20.471257 16.377005 36.848262 35.8247 36.848262h215.971758c19.447694 0 35.824699-16.377005 35.824699-36.848262v-114.639038c0-36.848262 18.424131-70.625836 48.107454-91.097092 93.144218-63.460896 149.440174-170.934994 149.440174-286.597594 0-96.214907-37.871825-186.288436-106.450535-251.796458-63.460896-61.41377-146.369486-94.167781-234.39589-94.167781z" fill="#8B8989" p-id="42959"></path><path d="M691.123496 875.583389H330.829378c-19.447694 0-35.824699-16.377005-35.824699-36.848262s16.377005-36.848262 35.824699-36.848262h360.294118c19.447694 0 35.824699 16.377005 35.8247 36.848262s-16.377005 36.848262-35.8247 36.848262z" fill="#8B8989" p-id="42960"></path></svg>