<?xml version="1.0" standalone="no"?><!DOCTYPE svg PUBLIC "-//W3C//DTD SVG 1.1//EN" "http://www.w3.org/Graphics/SVG/1.1/DTD/svg11.dtd"><svg t="1533192381143" class="icon" style="" viewBox="0 0 1024 1024" version="1.1" xmlns="http://www.w3.org/2000/svg" p-id="1064" xmlns:xlink="http://www.w3.org/1999/xlink" width="128" height="128"><defs><style type="text/css"></style></defs><path d="M316.195 690.016c-49.033-0.025-88.773-39.78-88.773-88.816 0-49.052 39.764-88.816 88.816-88.816 0.015 0 0.031 0 0.046 0 49.049 0 88.814 39.764 88.814 88.816 0 49.052-39.764 88.816-88.816 88.816zM316.195 459.102c-0.741-0.014-1.614-0.022-2.489-0.022-78.502 0-142.141 63.638-142.141 142.141 0 78.503 63.638 142.141 142.141 142.141 0.876 0 1.748-0.007 2.62-0.023 78.371 0.002 142.010-63.637 142.010-142.139 0-78.502-63.638-142.141-142.141-142.141zM547.152 459.102c0.371-0.014 0.807-0.022 1.245-0.022 19.626 0 35.535 15.909 35.535 35.535 0 19.626-15.909 35.535-35.535 35.535-0.438 0-0.874-0.009-1.307-0.023-19.563 0.002-35.472-15.907-35.472-35.533 0-19.626 15.909-35.535 35.535-35.535zM795.854 459.102c0 0 0 0 0 0 19.626 0 35.535 15.909 35.535 35.535 0 19.626-15.909 35.535-35.535 35.535 0 0 0 0 0 0h-124.352c-19.626 0-35.535-15.909-35.535-35.535s15.909-35.535 35.535-35.535h124.352zM795.854 672.27c0 0 0 0 0 0 19.626 0 35.535 15.909 35.535 35.535 0 19.626-15.909 35.535-35.535 35.535 0 0 0 0 0 0h-124.352c0 0 0 0 0 0-19.626 0-35.535-15.909-35.535-35.535 0-19.626 15.909-35.535 35.535-35.535 0 0 0 0 0 0h124.352zM547.152 672.27c0.371-0.014 0.807-0.022 1.245-0.022 19.626 0 35.535 15.909 35.535 35.535 0 19.626-15.909 35.535-35.535 35.535-0.438 0-0.874-0.007-1.307-0.023-19.563 0.002-35.472-15.907-35.472-35.533 0-19.626 15.909-35.535 35.535-35.535zM920.162 761.086c0 88.279-71.564 159.843-159.843 159.843h-497.406c-88.279 0-159.843-71.564-159.843-159.843v-319.774c0-88.279 71.564-159.843 159.843-159.843 0 0 0 0 0 0h497.406c88.279 0 159.843 71.564 159.843 159.843 0 0 0 0 0 0v319.774zM778.065 210.4h-431.045l192.806-111.315c10.701-6.26 17.775-17.695 17.775-30.783 0-19.629-15.913-35.543-35.543-35.543-6.542 0-12.67 1.767-17.935 4.851l-276.702 159.796c-7.699 4.467-13.463 11.547-16.133 20.002-101.306 11.53-179.283 99.739-179.287 206.16v355.265c0.025 117.719 95.449 213.143 213.165 213.168h532.857c0 0 0 0 0 0 117.738 0 213.187-95.433 213.211-213.165v-355.268c-0.025-117.719-95.449-213.142-213.165-213.168z" p-id="1065" fill="#ffffff"></path></svg>