<?xml version="1.0" standalone="no"?><!DOCTYPE svg PUBLIC "-//W3C//DTD SVG 1.1//EN" "http://www.w3.org/Graphics/SVG/1.1/DTD/svg11.dtd"><svg t="1533212694682" class="icon" style="" viewBox="0 0 1024 1024" version="1.1" xmlns="http://www.w3.org/2000/svg" p-id="3326" xmlns:xlink="http://www.w3.org/1999/xlink" width="128" height="128"><defs><style type="text/css"></style></defs><path d="M1012.389568 667.045215l-13.654998 0 0-67.016323c9.383718-5.430686 15.70161-15.569604 15.70161-27.190269 0-277.488919-224.948285-502.43618-502.43618-502.43618S9.56382 295.349705 9.56382 572.838623c0 11.620665 6.317892 21.760606 15.70161 27.190269l0 67.016323L11.610432 667.045215c-1.125637 0-2.046612 0.920976-2.046612 2.046612l0 184.319959c0 1.125637 0.920976 2.046612 2.046612 2.046612l58.71117 0c1.125637 0 2.046612-0.920976 2.046612-2.046612l0-45.057195 15.70161 0 0 136.193869c0 2.814092 2.302439 5.116531 5.116531 5.116531l133.12395 0c1.688455 0 3.069919-1.381463 3.069919-3.069919L229.380224 575.908542c0-1.688455-1.381463-3.069919-3.069919-3.069919L93.185332 572.838623c-2.814092 0-5.116531 2.302439-5.116531 5.116531l0 151.894456L72.368214 729.84961 72.368214 669.091828c0-1.125637-0.920976-2.046612-2.046612-2.046612L56.666604 667.045215l0-67.016323c9.383718-5.430686 15.70161-15.569604 15.70161-27.190269 0-242.801908 196.829877-439.631786 439.631786-439.631786s439.631786 196.829877 439.631786 439.631786c0 11.620665 6.317892 21.760606 15.70161 27.190269l0 67.016323-13.654998 0c-1.125637 0-2.046612 0.920976-2.046612 2.046612l0 60.757782L935.930175 729.84961 935.930175 577.955154c0-2.814092-2.302439-5.116531-5.116531-5.116531L797.689694 572.838623c-1.688455 0-3.069919 1.381463-3.069919 3.069919l0 370.687554c0 1.688455 1.381463 3.069919 3.069919 3.069919L930.813644 949.666014c2.814092 0 5.116531-2.302439 5.116531-5.116531L935.930175 808.355615l15.70161 0 0 45.057195c0 1.125637 0.920976 2.046612 2.046612 2.046612l58.71117 0c1.125637 0 2.046612-0.920976 2.046612-2.046612L1014.43618 669.091828C1014.43618 667.966191 1013.515205 667.045215 1012.389568 667.045215z" p-id="3327" fill="#e6e6e6"></path></svg>