<?xml version="1.0" standalone="no"?><!DOCTYPE svg PUBLIC "-//W3C//DTD SVG 1.1//EN" "http://www.w3.org/Graphics/SVG/1.1/DTD/svg11.dtd"><svg t="1533294587631" class="icon" style="" viewBox="0 0 1024 1024" version="1.1" xmlns="http://www.w3.org/2000/svg" p-id="20600" xmlns:xlink="http://www.w3.org/1999/xlink" width="128" height="128"><defs><style type="text/css"></style></defs><path d="M995.861537 290.550105l-186.804101-186.801896c-13.947746-13.945541-33.131959-21.047294-52.893838-19.523757-1.865285-0.160952-3.664425-0.240326-5.430493-0.240326l-99.521552 0-6.980487 3.882703c-36.869143 20.507111-83.913571 31.800243-132.463896 31.800243s-95.592548-11.293132-132.461691-31.800243l-6.980487-3.882703-99.523757 0c-25.377577 0-48.186528 13.844119-59.977952 35.830669l-184.649983 184.649983c-12.746114 12.746114-19.766288 29.692426-19.766288 47.7169s7.020174 34.970786 19.764083 47.7169l134.911256 134.91346c11.288722 11.286517 25.875868 18.079594 41.587477 19.475251l0 326.047845c0 37.568074 30.561129 68.131408 68.129203 68.131408l477.934076 0c37.568074 0 68.131408-30.561129 68.131408-68.131408l0-339.914012c15.899019-1.296439 30.67578-8.115974 42.081358-19.519347l134.915665-134.915665C1022.171756 359.671481 1022.171756 316.860324 995.861537 290.550105zM952.313968 342.43854l-134.915665 134.915665c-1.408885 1.41109-3.01841 1.706537-4.11862 1.706537-1.075956 0-2.654614-0.280013-4.065704-1.613935l-51.930327-49.024363 0 451.910484c0 3.611509-2.934627 6.548341-6.548341 6.548341L272.801235 886.88127c-3.609304 0-6.546136-2.934627-6.546136-6.548341l0-435.82626-51.524639 46.925367c-1.395656 1.269981-2.936832 1.536766-3.984125 1.536766-1.100209 0-2.705325-0.295447-4.116415-1.704332l-134.911256-134.91346c-1.426524-1.428729-1.726381-3.058097-1.726381-4.171536s0.299857-2.742807 1.726381-4.171536l186.398413-186.396208 5.955242-5.344504 2.670047-6.592437c0.76728-1.893948 2.815566-4.107596 6.061074-4.107596l83.79892 0c45.071106 23.368978 98.522765 35.682946 155.169221 35.682946s110.10032-12.313968 155.171425-35.682946l83.759233 0c0.330724 0.008819 0.657039 0.06394 0.981149 0.110241l4.396428 0.630581 4.398633-0.637195c1.402271-0.19623 3.258737-0.154338 5.035828 1.622754l186.801896 186.799691C954.613604 336.395105 954.613604 340.138904 952.313968 342.43854z" fill="#8B8989" p-id="20601"></path></svg>