<?xml version="1.0" standalone="no"?><!DOCTYPE svg PUBLIC "-//W3C//DTD SVG 1.1//EN" "http://www.w3.org/Graphics/SVG/1.1/DTD/svg11.dtd"><svg t="1533530860539" class="icon" style="" viewBox="0 0 1099 1024" version="1.1" xmlns="http://www.w3.org/2000/svg" p-id="2261" xmlns:xlink="http://www.w3.org/1999/xlink" width="51.515625" height="48"><defs><style type="text/css"></style></defs><path d="M825.16666661 962H265.5000002C153.13333291 962 62 872.4666667 62 761.99999961V262.00000039c0-110.46666709 91.13333291-200.00000039 203.5000002-200.00000039h559.66666641C937.53333301 62 1028.6666668 151.5333333 1028.6666668 262.00000039v499.99999922c0 110.46666709-91.13333291 200.00000039-203.5000002 200.00000039z m151.13333319-669.30000029c0-99.0666668-81.73333301-179.39999971-182.533333-179.39999971H296.9c-100.8 0-182.533333 80.33333291-182.533333 179.39999971V731.33333369c0 99.0666668 81.73333301 179.39999971 182.533333 179.3999997h496.8666668c100.8 0 182.533333-80.33333291 182.533333-179.3999997V292.66666631z" p-id="2262" fill="#d81e06"></path><path d="M428.66666651 295.33333291l300.00000058 200.00000039-300.00000058 200.00000039z" p-id="2263" fill="#d81e06"></path></svg>