<?xml version="1.0" standalone="no"?><!DOCTYPE svg PUBLIC "-//W3C//DTD SVG 1.1//EN" "http://www.w3.org/Graphics/SVG/1.1/DTD/svg11.dtd"><svg t="1533169877294" class="icon" style="" viewBox="0 0 1024 1024" version="1.1" xmlns="http://www.w3.org/2000/svg" p-id="12649" xmlns:xlink="http://www.w3.org/1999/xlink" width="128" height="128"><defs><style type="text/css"></style></defs><path d="M600.632 494.91L442.744 394.832c-12.5-7.89-28.516 1.64-28.516 17.11v200.076c0 15.546 15.938 25.078 28.516 17.11l157.89-100.078c12.186-7.738 12.186-26.406-0.002-34.14z" fill="#e7381d" p-id="12650"></path><path d="M672 252H352c-143.364 0-260 116.636-260 260 0 143.366 116.636 260 260 260h320c143.366 0 260-116.634 260-260 0-143.364-116.634-260-260-260z m0 480H352c-121.308 0-220-98.692-220-220S230.692 292 352 292h320c121.308 0 220 98.692 220 220s-98.692 220-220 220z" fill="#e7381d" p-id="12651"></path></svg>