<?xml version="1.0" standalone="no"?><!DOCTYPE svg PUBLIC "-//W3C//DTD SVG 1.1//EN" "http://www.w3.org/Graphics/SVG/1.1/DTD/svg11.dtd"><svg t="1533171322734" class="icon" style="" viewBox="0 0 1099 1024" version="1.1" xmlns="http://www.w3.org/2000/svg" p-id="17756" xmlns:xlink="http://www.w3.org/1999/xlink" width="137.375" height="128"><defs><style type="text/css"></style></defs><path d="M821.9999999 962h-553.333333c-110.00000039 0-200.00000039-90-200.00000039-200.00000039v-499.99999922c0-110.00000039 90-200.00000039 200.00000039-200.00000039h553.333333c110.00000039 0 200.00000039 90 200.00000039 200.00000039v499.99999922c0 110.00000039-90 200.00000039-200.00000039 200.00000039z m146.66666661-669.9999999c0-100.0000002-79.9999998-180-180-180h-489.99999991c-100.0000002 0-180 79.9999998-180 180v439.9999998c0 100.0000002 79.9999998 180 180 180h489.99999991c100.0000002 0 180-79.9999998 180-180v-439.9999998z" p-id="17757" fill="#ffffff"></path><path d="M445.3333332 298.66666661l293.33333321 200.00000039-293.33333321 199.99999951z" p-id="17758" fill="#ffffff"></path></svg>