<?xml version="1.0" standalone="no"?><!DOCTYPE svg PUBLIC "-//W3C//DTD SVG 1.1//EN" "http://www.w3.org/Graphics/SVG/1.1/DTD/svg11.dtd"><svg t="1533523323042" class="icon" style="" viewBox="0 0 1024 1024" version="1.1" xmlns="http://www.w3.org/2000/svg" p-id="7877" xmlns:xlink="http://www.w3.org/1999/xlink" width="32" height="32"><defs><style type="text/css"></style></defs><path d="M822.745858 109.993137c50.248428 0 91.248214 40.913828 91.248214 91.25026l0 442.810175c0 50.335409-40.999786 91.25026-91.248214 91.25026L467.323986 735.303832l-18.494213 0-13.085016 13.083993L333.329203 850.802356 333.329203 779.967054l0-44.664246-44.665269 0-87.410815 0c-50.334385 0-91.249237-40.913828-91.249237-91.25026L110.003881 201.242374c0-50.335409 40.913828-91.25026 91.249237-91.25026L822.745858 109.992113M822.745858 65.327868 201.253118 65.327868c-75.089186 0-135.913483 60.847833-135.913483 135.914506l0 442.810175c0 75.066673 60.824297 135.914506 135.913483 135.914506l87.410815 0 0 178.704055L467.323986 779.967054l355.421872 0c75.022671 0 135.913483-60.847833 135.913483-135.914506L958.659341 201.242374C958.659341 126.175701 897.768529 65.327868 822.745858 65.327868" fill="#dbdbdb" p-id="7878"></path><path d="M243.998665 377.982704l536.000624 0 0 44.664246-536.000624 0 0-44.664246Z" fill="#dbdbdb" p-id="7879"></path><path d="M243.998665 511.977487l536.000624 0 0 44.664246-536.000624 0 0-44.664246Z" fill="#dbdbdb" p-id="7880"></path><path d="M243.998665 243.988943l536.000624 0 0 44.664246-536.000624 0 0-44.664246Z" fill="#dbdbdb" p-id="7881"></path></svg>