<?xml version="1.0" standalone="no"?><!DOCTYPE svg PUBLIC "-//W3C//DTD SVG 1.1//EN" "http://www.w3.org/Graphics/SVG/1.1/DTD/svg11.dtd"><svg t="1533294290698" class="icon" style="" viewBox="0 0 1024 1024" version="1.1" xmlns="http://www.w3.org/2000/svg" p-id="14351" xmlns:xlink="http://www.w3.org/1999/xlink" width="128" height="128"><defs><style type="text/css"></style></defs><path d="M812.86144 945.27488c9.85088-11.82208 15.74912-23.63392 15.74912-37.4272 0-15.74912-5.89824-25.59488-15.74912-37.41696-11.82208-11.82208-23.63392-15.74912-37.4272-15.74912-15.74912 0-27.55584 3.93216-37.40672 15.74912-11.83232 11.82208-15.75936 21.66272-15.75936 37.41696 0 13.78816 3.93216 25.60512 15.75936 37.4272 9.85088 9.85088 21.65248 15.74912 37.40672 15.74912C789.22752 961.024 801.03936 955.12576 812.86144 945.27488z" p-id="14352" fill="#8B8989"></path><path d="M388.66944 961.024c13.78816 0 25.60512-5.89824 37.4272-15.74912 9.84576-11.82208 15.74912-23.63392 15.74912-37.4272 0-15.74912-5.90336-25.59488-15.74912-37.41696-11.82208-11.82208-23.63392-15.74912-37.4272-15.74912-15.75424 0-27.55584 3.93216-37.40672 15.74912-11.82208 11.82208-15.75936 21.66272-15.75936 37.41696 0 13.78816 3.93728 25.60512 15.75936 37.4272C361.1136 955.12576 372.9152 961.024 388.66944 961.024z" p-id="14353" fill="#8B8989"></path><path d="M23.2192 161.84832c4.91008 4.92032 12.29312 7.3728 17.2032 7.3728l142.62784 0 118.03136 548.36736c0 7.36768 2.45248 12.29312 7.36768 14.75072 4.92544 4.9152 9.84576 4.9152 14.75584 4.9152l543.44192 0c7.3728 0 12.29312 0 17.21856-4.9152 2.45248-2.45248 7.36768-7.37792 7.36768-12.288l95.8976-422.95296c2.4576-7.3728 0-12.29312-2.4576-17.21856-2.45248-4.91008-4.92032-7.3728-7.36768-7.3728 0-7.36768-2.4576-12.29312-7.3728-17.21344-4.92544-4.91008-9.84576-7.3728-17.21856-7.3728L362.55744 247.92064c-4.92032 0-12.29312 2.4576-17.21856 7.3728-4.92032 4.92032-7.3728 12.29312-7.3728 17.21344 0 7.3728 2.45248 12.29824 7.3728 17.21856 4.92544 4.91008 12.29824 7.3728 17.21856 7.3728l575.40096 0-90.97728 390.97856L342.89152 688.0768 227.31264 139.7248c0-4.92544-4.92544-9.83552-7.3728-14.75584-4.92032-2.46272-9.84576-4.92544-17.21856-4.92544L40.42752 120.04352c-4.91008 0-12.29312 2.46272-17.2032 7.38304-4.92544 4.91008-7.38304 9.8304-7.38304 17.20832C15.83616 149.5552 18.29376 156.92288 23.2192 161.84832z" p-id="14354" fill="#8B8989"></path></svg>