<?xml version="1.0" standalone="no"?><!DOCTYPE svg PUBLIC "-//W3C//DTD SVG 1.1//EN" "http://www.w3.org/Graphics/SVG/1.1/DTD/svg11.dtd"><svg t="1533365701372" class="icon" style="" viewBox="0 0 1024 1024" version="1.1" xmlns="http://www.w3.org/2000/svg" p-id="5266" xmlns:xlink="http://www.w3.org/1999/xlink" width="16" height="16"><defs><style type="text/css"></style></defs><path d="M922.779667 438.969707c-18.212804-29.308513-49.752124-47.581692-82.136695-48.545647l-200.757326-0.964977a364.94169 364.94169 0 0 0 20.142759-119.706359c0-20.263509-1.74883-41.007973-5.607718-63.38154l-3.740184-16.161074c-10.673084-46.314839-51.319829-78.758762-98.960873-78.758762-56.023968 0-101.615329 45.590338-101.615329 101.674681 0 3.257184 0.119727 6.451946 0.421602 9.105378-2.774183 99.443873-122.480542 202.083531-163.186639 202.083531h-0.060375l-149.135622 0.060376c-19.478633 0-35.338856 15.920598-35.338856 35.400254l-0.362251 417.314501c0 19.780509 17.127076 34.193777 38.59604 34.796504l129.295762-0.2415 4.944615 0.904602 4.342912-0.602727 492.093624 0.181125c17.307178-1.206478 34.011628-6.573719 48.484248-15.799848 15.679098-10.07138 28.343535-24.243147 34.073026-36.725436l6.030344-10.009981c33.892925-80.68974 75.262124-327.882656 76.950579-338.314239l0.663103-10.012028c1.687432-22.193465-3.558036-43.722804-15.136746-62.296834z m-759.669776 46.012963l80.448241-0.119727v366.838899l-80.749093 0.240477 0.300852-366.959649z m643.460055 337.590761l-3.798513 6.030344c-3.438309 6.934946-8.683776 12.784164-15.07637 16.885575-5.850242 3.738138-12.785188 5.969968-18.031679 6.332219l-465.800795-0.181125V481.666134c79.543637-15.497972 203.53151-137.073912 206.90842-262.389012l-0.361227-6.151093c0-22.796192 18.513656-41.3692 41.308825-41.3692 19.357883 0 35.882232 13.145391 40.223097 32.022321l3.377933 14.351869c2.954285 17.308201 4.40124 34.615379 4.40124 51.500955 0 34.254152-5.729491 68.084655-17.065677 100.469225l-27.740808 79.543638 274.630824 0.060375 6.513344 0.664126c14.59337 0.542352 27.860535 8.200776 35.519982 20.503986 4.764514 7.658424 6.934946 16.5837 6.210445 30.514991-0.419556 2.409886-41.910529 250.567779-71.219041 321.185116z" p-id="5267" fill="#8B8989"></path></svg>