<?xml version="1.0" standalone="no"?><!DOCTYPE svg PUBLIC "-//W3C//DTD SVG 1.1//EN" "http://www.w3.org/Graphics/SVG/1.1/DTD/svg11.dtd"><svg t="1533365807512" class="icon" style="" viewBox="0 0 1024 1024" version="1.1" xmlns="http://www.w3.org/2000/svg" p-id="7845" xmlns:xlink="http://www.w3.org/1999/xlink" width="16" height="16"><defs><style type="text/css"></style></defs><path d="M920.448 459.456a39.552 39.552 0 0 0-39.552 39.552v342.528a39.552 39.552 0 0 1-39.552 39.552H182.592a39.552 39.552 0 0 1-39.552-39.552V182.784a39.552 39.552 0 0 1 39.552-39.552h316.224a39.552 39.552 0 1 0 0-79.232H182.592A118.72 118.72 0 0 0 64 182.784v658.752A118.72 118.72 0 0 0 182.592 960h658.816A118.72 118.72 0 0 0 960 841.536V499.2a39.552 39.552 0 0 0-39.552-39.744z m-136.96-276.288a422.4 422.4 0 0 0-412.8 421.376 39.552 39.552 0 0 0 79.04 0 343.168 343.168 0 0 1 342.848-342.784c10.368 0 20.736 0.64 31.104 1.664l-96 86.208a39.552 39.552 0 0 0 52.864 58.752l152.96-137.6s0.384-0.64 0.704-0.896 1.536-1.28 2.24-2.048a37.312 37.312 0 0 0 2.944-4.992 38.4 38.4 0 0 0 4.224-6.848 37.76 37.76 0 0 0 1.792-7.296 38.4 38.4 0 0 0 1.024-7.424 38.4 38.4 0 0 0-1.024-7.424 37.76 37.76 0 0 0-1.792-7.296 38.72 38.72 0 0 0-3.968-6.784 37.312 37.312 0 0 0-2.944-4.992c-0.512-0.512-1.152-0.768-1.664-1.28s-0.64-1.088-1.28-1.536l-152.96-137.6a39.552 39.552 0 1 0-52.864 58.752z" fill="#8B8989" p-id="7846"></path></svg>