<?xml version="1.0" standalone="no"?><!DOCTYPE svg PUBLIC "-//W3C//DTD SVG 1.1//EN" "http://www.w3.org/Graphics/SVG/1.1/DTD/svg11.dtd"><svg t="1533294897226" class="icon" style="" viewBox="0 0 1024 1024" version="1.1" xmlns="http://www.w3.org/2000/svg" p-id="32134" xmlns:xlink="http://www.w3.org/1999/xlink" width="128" height="128"><defs><style type="text/css"></style></defs><path d="M858.078208 183.2448C678.878208-4.608 380.638208-15.7184 190.737408 159.0272 92.484608 249.6512 39.031808 362.2912 34.731008 495.9744c-4.6592 152.4224 53.76 278.4768 167.9872 381.2864-2.0992 1.536-4.5056 2.816-6.4 4.7104-27.4432 27.2896-54.8864 54.9888-82.6368 82.3808-9.984 10.0352-13.7728 21.8624-9.6256 35.4816 7.4752 24.832 37.9904 32.2048 56.9344 13.6192 30.5152-30.1568 60.8256-60.6208 91.1872-90.88 1.8432-1.8944 3.7376-3.584 4.8128-4.7616 170.24 96.6656 339.6096 96.6656 511.1808-0.7168 0.6656 0.9728 1.7408 3.4816 3.584 5.3248 29.8496 30.1056 60.0064 60.0064 90.0096 90.112 9.6256 9.6256 20.9408 13.6192 34.1504 10.2912a33.8432 33.8432 0 0 0 15.3088-57.2416c-18.3808-18.9952-37.3248-37.4272-56.0128-56.0128l-33.28-33.4336c211.9168-181.1456 222.3104-497.9712 36.1472-692.8896zM510.379008 921.6512c-224.8192-0.1024-408.064-183.9616-408.064-409.2928 0-225.9456 183.3472-409.0368 409.6512-409.344 226.0992-0.2048 409.856 183.6544 409.6 409.7536-0.3584 227.0208-183.4496 408.8832-411.1872 408.8832zM68.267008 205.9264c1.0752-45.2096 18.8928-82.0736 54.8864-109.6192 24.3712-18.5344 52.3776-26.9312 83.0976-27.4432 16.64-0.3584 29.5936-12.3904 32.4096-29.1328A33.5872 33.5872 0 0 0 217.566208 3.584C211.934208 1.4848 205.841408 1.1264 199.851008 0c-39.1168 2.304-75.1104 12.6976-107.2128 34.56C32.734208 75.1616 2.219008 131.9936 0.068608 204.0832a32.3584 32.3584 0 0 0 13.8752 28.672c10.8032 7.8336 22.528 9.3184 34.7136 3.3792a32.4096 32.4096 0 0 0 19.6096-30.208zM1024.017408 202.0352c-1.4848-38.7072-10.3936-71.2704-28.5696-100.608-40.3968-64.7168-98.816-98.2528-175.2064-100.352a33.4848 33.4848 0 0 0-33.1776 22.6304c-7.8336 22.4256 8.1408 44.544 32.8192 45.3632 49.7664 1.5872 88.6272 23.0912 115.456 65.1264 13.8752 21.4528 20.0192 45.4144 20.3776 70.9632a33.9968 33.9968 0 0 0 24.1664 32.9216 34.304 34.304 0 0 0 44.1344-36.0448z" fill="#8B8989" p-id="32135"></path><path d="M492.254208 502.528a15.7184 15.7184 0 0 0 5.0688-12.2368c-0.256-60.2112-0.256-120.32-0.256-180.3776 0-8.96 1.9968-17.2544 7.7312-24.32a34.0992 34.0992 0 0 1 37.6832-10.8032c13.7728 4.608 22.6816 17.0496 22.6816 32.3584 0.256 33.9456 0.1024 67.9424 0.1024 101.7856 0 32.3072-0.4096 64.5632 0.1536 96.9216a43.52 43.52 0 0 1-13.9776 33.9968c-35.328 34.9184-70.4 70.2976-105.5744 105.4208-9.216 9.216-18.1248 18.4832-27.5968 27.392a33.8944 33.8944 0 0 1-45.7728 1.2288c-15.3088-13.2608-15.872-35.9424-0.4096-51.3536 39.8848-40.192 79.9232-80.128 120.1664-120.0128z" fill="#8B8989" p-id="32136"></path></svg>