<?xml version="1.0" standalone="no"?><!DOCTYPE svg PUBLIC "-//W3C//DTD SVG 1.1//EN" "http://www.w3.org/Graphics/SVG/1.1/DTD/svg11.dtd"><svg t="1533524390720" class="icon" style="" viewBox="0 0 1024 1024" version="1.1" xmlns="http://www.w3.org/2000/svg" p-id="14499" xmlns:xlink="http://www.w3.org/1999/xlink" width="48" height="48"><defs><style type="text/css"></style></defs><path d="M575.786667 633.834667l30.336 65.813333c52.266667 113.408 123.072 186.069333 247.936 186.069333h84.181333a21.333333 21.333333 0 1 1 0 42.666667h-84.181333c-141.525333 0-227.456-82.346667-286.698667-210.88L552.32 684.8l23.466667-50.965333z m-88.32-191.658667l-23.509334 50.965333-28.288-61.376A320 320 0 0 0 145.066667 245.717333H85.333333a21.333333 21.333333 0 0 1 0-42.666666h59.733334a362.666667 362.666667 0 0 1 329.365333 210.858666l13.013333 28.266667z m400.426666-196.48h-33.834666c-124.864 0-195.669333 72.661333-247.936 186.069333l-131.690667 285.738667a362.666667 362.666667 0 0 1-329.386667 210.88H85.333333a21.333333 21.333333 0 0 1 0-42.666667h59.733334a320 320 0 0 0 290.602666-186.069333l131.690667-285.738667c59.242667-128.533333 145.173333-210.858667 286.72-210.858666h32.490667L802.773333 119.296a21.333333 21.333333 0 1 1 30.186667-30.186667l120.661333 120.682667c4.48 4.48 6.570667 10.474667 6.229334 16.341333a21.248 21.248 0 0 1-6.229334 14.165334l-120.682666 120.682666a21.333333 21.333333 0 1 1-30.165334-30.186666l85.077334-85.077334z" fill="#dbdbdb" p-id="14500"></path></svg>