<?xml version="1.0" standalone="no"?><!DOCTYPE svg PUBLIC "-//W3C//DTD SVG 1.1//EN" "http://www.w3.org/Graphics/SVG/1.1/DTD/svg11.dtd"><svg t="1533300579008" class="icon" style="" viewBox="0 0 1024 1024" version="1.1" xmlns="http://www.w3.org/2000/svg" p-id="47510" xmlns:xlink="http://www.w3.org/1999/xlink" width="128" height="128"><defs><style type="text/css"></style></defs><path d="M384 810.666667h-42.666667V218.346667a64 64 0 0 1 53.248-63.104l405.333334-69.013334A64 64 0 0 1 874.666667 149.333333v598.677334h-42.666667V149.333333a21.333333 21.333333 0 0 0-24.917333-21.034666l-405.333334 69.013333a21.333333 21.333333 0 0 0-17.749333 21.034667V810.666667z" fill="#8B8989" p-id="47511"></path><path d="M366.314667 383.68l-7.296-42.026667 490.666666-85.333333 7.296 42.026667zM256 938.666667a128 128 0 1 1 0-256 128 128 0 0 1 0 256z m0-42.666667a85.333333 85.333333 0 1 0 0-170.666667 85.333333 85.333333 0 0 0 0 170.666667zM746.666667 874.666667a128 128 0 1 1 0-256 128 128 0 0 1 0 256z m0-42.666667a85.333333 85.333333 0 1 0 0-170.666667 85.333333 85.333333 0 0 0 0 170.666667z" fill="#8B8989" p-id="47512"></path></svg>